<svg width="1920" height="1030" viewBox="0 0 1920 1030" fill="none" xmlns="http://www.w3.org/2000/svg">
<path opacity="0.38" fill-rule="evenodd" clip-rule="evenodd" d="M152.318 0.600291H-55.2708V171.483H130.811L152.318 153.78V0.600291ZM174.397 171.483L153.169 154.008V0.600291H360.757V171.483H174.397ZM153.169 189.399L174.081 172.184H360.757V343.067H153.169V189.399ZM131.128 172.184L152.318 189.627V343.067H-55.2708V172.184H131.128ZM-56 0V171.583V172.084V343.166V343.667V514.75V515.25V686.333V686.833V857.917V858.417V1030H152.439H153.047H360.878H361.486H569.317H569.925H777.757H778.364H986.196H986.804H1194.63H1195.24H1403.07H1403.68H1611.51H1612.12H1819.95H1820.56H2029L2029 858.417V686.833V686.333V514.75V343.667V172.084V171.583V0H1820.56H1819.95H1612.12H1611.51H1403.68H1403.07H1195.24H1194.63H986.804H986.196H778.364H777.757H569.925H569.317H361.486H360.878H153.047H152.439H-56ZM361.607 0.600291H569.196V171.483H361.607V0.600291ZM777.635 0.600291H570.047V171.483H777.635V0.600291ZM778.486 0.600291H986.074V171.483H778.486V0.600291ZM1194.51 0.600291H986.925V171.483H1194.51V0.600291ZM1195.36 0.600291H1402.95V171.483H1195.36V0.600291ZM1611.39 0.600291H1403.8V171.483H1611.39V0.600291ZM1612.24 0.600291H1819.83V171.483H1612.24V0.600291ZM2028.27 0.600291H1820.68V171.483H2028.27V0.600291ZM361.607 172.184H569.196V343.067H361.607V172.184ZM777.635 172.184H570.047V343.067H756.755L777.635 325.878V172.184ZM799.032 343.067L778.486 326.153V172.184H986.074V343.067H799.032ZM778.486 361.497L799.954 343.825L799.883 343.767H986.074V514.649H778.486V361.497ZM755.904 343.767L755.833 343.825L777.635 361.772V514.649H570.047V343.767H755.904ZM1194.51 172.184H986.925V343.067H1194.51V172.184ZM1195.36 172.184H1402.95V343.067H1195.36V172.184ZM1611.39 172.184H1403.8V343.067H1611.39V172.184ZM1612.24 172.184H1819.83V295.658L1819.48 295.948L1762.24 343.067H1612.24V172.184ZM1761.39 343.767H1612.24V497.815L1612.94 497.241L1634.09 514.649H1819.83V391.993L1819.48 391.702L1761.88 344.289L1761.32 343.825L1761.39 343.767ZM1819.83 391.065L1762.44 343.825L1762.52 343.767H1798.05L1797.98 343.825L1819.83 361.811V391.065ZM1820.68 391.639V514.649H2028.27V343.767H1878.69L1878.77 343.825L1878.2 344.289L1820.68 391.639ZM1877.57 343.767L1877.64 343.825L1820.68 390.712V361.458L1842.1 343.825L1842.03 343.767H1877.57ZM1877.84 343.067H2028.27V172.184H1820.68V296.012L1877.84 343.067ZM1820.68 296.939L1876.72 343.067H1841.18L1820.68 326.193V296.939ZM1819.83 296.585L1763.37 343.067H1798.9L1819.83 325.839V296.585ZM1612.24 532.986L1612.94 533.56L1635 515.401L1634.94 515.35H1819.83V686.233H1612.24V532.986ZM1590.94 515.35L1590.88 515.401L1611.39 532.286V686.233H1403.8V515.35H1590.94ZM1611.39 498.515L1591.79 514.649H1403.8V343.767H1611.39V498.515ZM-55.2708 343.767H152.318V514.649H-55.2708V343.767ZM360.757 343.767H153.169V514.649H360.757V343.767ZM361.607 343.767H569.196V514.649H361.607V343.767ZM1194.51 343.767H986.925V514.649H1194.51V343.767ZM1195.36 343.767H1402.95V514.649H1195.36V343.767ZM-55.2708 515.35H152.318V686.233H-55.2708V515.35ZM360.757 515.35H153.169V686.233H303.399L303.129 686.011L303.692 685.547L360.757 638.573V515.35ZM360.757 639.5L304.256 686.011L304.526 686.233H340.063L339.793 686.011L360.757 668.754V639.5ZM361.607 668.054V638.8L361.853 638.597L419.451 686.011L419.181 686.233H383.644L383.914 686.011L361.854 667.851L361.607 668.054ZM361.607 703.968L361.854 704.17L382.793 686.933H418.33L361.853 733.424L361.607 733.221V703.968ZM340.914 686.933L360.757 703.268V732.522L305.377 686.933H340.914ZM304.25 686.933H153.169V857.816H360.757V733.449L304.25 686.933ZM361.607 734.149V857.816H569.196V686.933H419.457L362.417 733.888L361.853 734.351L361.607 734.149ZM420.307 686.233H569.196V515.35H361.607V637.873L361.853 637.67L362.417 638.134L420.014 685.547L420.577 686.011L420.307 686.233ZM777.635 515.35H570.047V686.233H777.635V515.35ZM778.486 515.35H986.074V686.233H778.486V515.35ZM1194.51 515.35H986.925V686.233H1194.51V515.35ZM1195.36 515.35H1402.95V686.233H1195.36V515.35ZM2028.27 515.35H1820.68V686.233H2028.27V515.35ZM-55.2708 686.933H152.318V857.816H-55.2708V686.933ZM777.635 686.933H570.047V857.816H777.635V686.933ZM778.486 686.933H986.074V857.816H778.486V686.933ZM1194.51 686.933H986.925V857.816H1194.51V686.933ZM1195.36 686.933H1402.95V857.816H1195.36V686.933ZM1611.39 686.933H1403.8V857.816H1611.39V686.933ZM1612.24 686.933H1819.83V857.816H1612.24V686.933ZM2028.27 686.933H1820.68V857.816H2028.27V686.933ZM-55.2708 858.517H152.318V1029.4H-55.2708V858.517ZM360.757 858.517H153.169V1029.4H360.757V858.517ZM361.607 858.517H569.196V1029.4H361.607V858.517ZM777.635 858.517H570.047V1029.4H777.635V858.517ZM778.486 858.517H986.074V1029.4H778.486V858.517ZM1194.51 858.517H986.925V1029.4H1194.51V858.517ZM1195.36 858.517H1402.95V1029.4H1195.36V858.517ZM1611.39 858.517H1403.8V1029.4H1611.39V858.517ZM1612.24 858.517H1819.83V1029.4H1612.24V858.517ZM2028.27 858.517H1820.68V1029.4H2028.27V858.517Z" fill="url(#paint0_radial_65_192)" fill-opacity="0.6"/>
<defs>
<radialGradient id="paint0_radial_65_192" cx="0" cy="0" r="1" gradientUnits="userSpaceOnUse" gradientTransform="translate(986.5 -578.111) rotate(90) scale(1478.34 2992.55)">
<stop stop-color="#B49DEF"/>
<stop offset="1" stop-color="#AA89FF" stop-opacity="0.04"/>
</radialGradient>
</defs>
</svg>
