<svg width="1582" height="877" viewBox="0 0 1582 877" fill="none" xmlns="http://www.w3.org/2000/svg">
<g style="mix-blend-mode:overlay" opacity="0.81">
<path d="M36.9091 1H1V47.0646M36.9091 1V47.0646M36.9091 1H72.8182M36.9091 47.0646H1M36.9091 47.0646V93.1293M36.9091 47.0646H72.8182M1 47.0646V93.1293M36.9091 93.1293H1M36.9091 93.1293V139.194M36.9091 93.1293H72.8182M1 93.1293V139.194M36.9091 139.194H1M36.9091 139.194V185.259M36.9091 139.194H72.8182M1 139.194V185.259M36.9091 185.259H1M36.9091 185.259V231.323M36.9091 185.259H72.8182M1 185.259V231.323M36.9091 231.323H1M36.9091 231.323V277.388M36.9091 231.323H72.8182M1 231.323V277.388M36.9091 277.388H1M36.9091 277.388V323.453M36.9091 277.388H72.8182M1 277.388V323.453M36.9091 323.453H1M36.9091 323.453V369.517M36.9091 323.453H72.8182M1 323.453V369.517M36.9091 369.517H1M36.9091 369.517V415.582M36.9091 369.517H72.8182M1 369.517V415.582M36.9091 415.582H1M36.9091 415.582V461.646M36.9091 415.582H72.8182M1 415.582V461.646M36.9091 461.646H1M36.9091 461.646V507.711M36.9091 461.646H72.8182M1 461.646V507.711M36.9091 507.711H1M36.9091 507.711V553.776M36.9091 507.711H72.8182M1 507.711V553.776M36.9091 553.776H1M36.9091 553.776V599.84M36.9091 553.776H72.8182M1 553.776V599.84M36.9091 599.84H1M36.9091 599.84V645.905M36.9091 599.84H72.8182M1 599.84V645.905M36.9091 645.905H1M36.9091 645.905V691.97M36.9091 645.905H72.8182M1 645.905V691.97M36.9091 691.97H1M36.9091 691.97V738.034M36.9091 691.97H72.8182M1 691.97V738.034M36.9091 738.034H1M36.9091 738.034V784.099M36.9091 738.034H72.8182M1 738.034V784.099M36.9091 784.099H1M36.9091 784.099V830.164M36.9091 784.099H72.8182M1 784.099V830.164M36.9091 830.164H1M36.9091 830.164V876.228M36.9091 830.164H72.8182M1 830.164V876.228H36.9091M36.9091 876.228H72.8182M72.8182 1V47.0646M72.8182 1H108.727M72.8182 47.0646V93.1293M72.8182 47.0646H108.727M72.8182 93.1293V139.194M72.8182 93.1293H108.727M72.8182 139.194V185.259M72.8182 139.194H108.727M72.8182 185.259V231.323M72.8182 185.259H108.727M72.8182 231.323V277.388M72.8182 231.323H108.727M72.8182 277.388V323.453M72.8182 277.388H108.727M72.8182 323.453V369.517M72.8182 323.453H108.727M72.8182 369.517V415.582M72.8182 369.517H108.727M72.8182 415.582V461.646M72.8182 415.582H108.727M72.8182 461.646V507.711M72.8182 461.646H108.727M72.8182 507.711V553.776M72.8182 507.711H108.727M72.8182 553.776V599.84M72.8182 553.776H108.727M72.8182 599.84V645.905M72.8182 599.84H108.727M72.8182 645.905V691.97M72.8182 645.905H108.727M72.8182 691.97V738.034M72.8182 691.97H108.727M72.8182 738.034V784.099M72.8182 738.034H108.727M72.8182 784.099V830.164M72.8182 784.099H108.727M72.8182 830.164V876.228M72.8182 830.164H108.727M72.8182 876.228H108.727M108.727 1V47.0646M108.727 1H144.636M108.727 47.0646V93.1293M108.727 47.0646H144.636M108.727 93.1293V139.194M108.727 93.1293H144.636M108.727 139.194V185.259M108.727 139.194H144.636M108.727 185.259V231.323M108.727 185.259H144.636M108.727 231.323V277.388M108.727 231.323H144.636M108.727 277.388V323.453M108.727 277.388H144.636M108.727 323.453V369.517M108.727 323.453H144.636M108.727 369.517V415.582M108.727 369.517H144.636M108.727 415.582V461.646M108.727 415.582H144.636M108.727 461.646V507.711M108.727 461.646H144.636M108.727 507.711V553.776M108.727 507.711H144.636M108.727 553.776V599.84M108.727 553.776H144.636M108.727 599.84V645.905M108.727 599.84H144.636M108.727 645.905V691.97M108.727 645.905H144.636M108.727 691.97V738.034M108.727 691.97H144.636M108.727 738.034V784.099M108.727 738.034H144.636M108.727 784.099V830.164M108.727 784.099H144.636M108.727 830.164V876.228M108.727 830.164H144.636M108.727 876.228H144.636M144.636 1V47.0646M144.636 1H180.545M144.636 47.0646V93.1293M144.636 47.0646H180.545M144.636 93.1293V139.194M144.636 93.1293H180.545M144.636 139.194V185.259M144.636 139.194H180.545M144.636 185.259V231.323M144.636 185.259H180.545M144.636 231.323V277.388M144.636 231.323H180.545M144.636 277.388V323.453M144.636 277.388H180.545M144.636 323.453V369.517M144.636 323.453H180.545M144.636 369.517V415.582M144.636 369.517H180.545M144.636 415.582V461.646M144.636 415.582H180.545M144.636 461.646V507.711M144.636 461.646H180.545M144.636 507.711V553.776M144.636 507.711H180.545M144.636 553.776V599.84M144.636 553.776H180.545M144.636 599.84V645.905M144.636 599.84H180.545M144.636 645.905V691.97M144.636 645.905H180.545M144.636 691.97V738.034M144.636 691.97H180.545M144.636 738.034V784.099M144.636 738.034H180.545M144.636 784.099V830.164M144.636 784.099H180.545M144.636 830.164V876.228M144.636 830.164H180.545M144.636 876.228H180.545M180.545 1V47.0646M180.545 1H216.455M180.545 47.0646V93.1293M180.545 47.0646H216.455M180.545 93.1293V139.194M180.545 93.1293H216.455M180.545 139.194V185.259M180.545 139.194H216.455M180.545 185.259V231.323M180.545 185.259H216.455M180.545 231.323V277.388M180.545 231.323H216.455M180.545 277.388V323.453M180.545 277.388H216.455M180.545 323.453V369.517M180.545 323.453H216.455M180.545 369.517V415.582M180.545 369.517H216.455M180.545 415.582V461.646M180.545 415.582H216.455M180.545 461.646V507.711M180.545 461.646H216.455M180.545 507.711V553.776M180.545 507.711H216.455M180.545 553.776V599.84M180.545 553.776H216.455M180.545 599.84V645.905M180.545 599.84H216.455M180.545 645.905V691.97M180.545 645.905H216.455M180.545 691.97V738.034M180.545 691.97H216.455M180.545 738.034V784.099M180.545 738.034H216.455M180.545 784.099V830.164M180.545 784.099H216.455M180.545 830.164V876.228M180.545 830.164H216.455M180.545 876.228H216.455M216.455 1V47.0646M216.455 1H252.364M216.455 47.0646V93.1293M216.455 47.0646H252.364M216.455 93.1293V139.194M216.455 93.1293H252.364M216.455 139.194V185.259M216.455 139.194H252.364M216.455 185.259V231.323M216.455 185.259H252.364M216.455 231.323V277.388M216.455 231.323H252.364M216.455 277.388V323.453M216.455 277.388H252.364M216.455 323.453V369.517M216.455 323.453H252.364M216.455 369.517V415.582M216.455 369.517H252.364M216.455 415.582V461.646M216.455 415.582H252.364M216.455 461.646V507.711M216.455 461.646H252.364M216.455 507.711V553.776M216.455 507.711H252.364M216.455 553.776V599.84M216.455 553.776H252.364M216.455 599.84V645.905M216.455 599.84H252.364M216.455 645.905V691.97M216.455 645.905H252.364M216.455 691.97V738.034M216.455 691.97H252.364M216.455 738.034V784.099M216.455 738.034H252.364M216.455 784.099V830.164M216.455 784.099H252.364M216.455 830.164V876.228M216.455 830.164H252.364M216.455 876.228H252.364M252.364 1V47.0646M252.364 1H288.273M252.364 47.0646V93.1293M252.364 47.0646H288.273M252.364 93.1293V139.194M252.364 93.1293H288.273M252.364 139.194V185.259M252.364 139.194H288.273M252.364 185.259V231.323M252.364 185.259H288.273M252.364 231.323V277.388M252.364 231.323H288.273M252.364 277.388V323.453M252.364 277.388H288.273M252.364 323.453V369.517M252.364 323.453H288.273M252.364 369.517V415.582M252.364 369.517H288.273M252.364 415.582V461.646M252.364 415.582H288.273M252.364 461.646V507.711M252.364 461.646H288.273M252.364 507.711V553.776M252.364 507.711H288.273M252.364 553.776V599.84M252.364 553.776H288.273M252.364 599.84V645.905M252.364 599.84H288.273M252.364 645.905V691.97M252.364 645.905H288.273M252.364 691.97V738.034M252.364 691.97H288.273M252.364 738.034V784.099M252.364 738.034H288.273M252.364 784.099V830.164M252.364 784.099H288.273M252.364 830.164V876.228M252.364 830.164H288.273M252.364 876.228H288.273M288.273 1V47.0646M288.273 1H324.182M288.273 47.0646V93.1293M288.273 47.0646H324.182M288.273 93.1293V139.194M288.273 93.1293H324.182M288.273 139.194V185.259M288.273 139.194H324.182M288.273 185.259V231.323M288.273 185.259H324.182M288.273 231.323V277.388M288.273 231.323H324.182M288.273 277.388V323.453M288.273 277.388H324.182M288.273 323.453V369.517M288.273 323.453H324.182M288.273 369.517V415.582M288.273 369.517H324.182M288.273 415.582V461.646M288.273 415.582H324.182M288.273 461.646V507.711M288.273 461.646H324.182M288.273 507.711V553.776M288.273 507.711H324.182M288.273 553.776V599.84M288.273 553.776H324.182M288.273 599.84V645.905M288.273 599.84H324.182M288.273 645.905V691.97M288.273 645.905H324.182M288.273 691.97V738.034M288.273 691.97H324.182M288.273 738.034V784.099M288.273 738.034H324.182M288.273 784.099V830.164M288.273 784.099H324.182M288.273 830.164V876.228M288.273 830.164H324.182M288.273 876.228H324.182M324.182 1V47.0646M324.182 1H360.091M324.182 47.0646V93.1293M324.182 47.0646H360.091M324.182 93.1293V139.194M324.182 93.1293H360.091M324.182 139.194V185.259M324.182 139.194H360.091M324.182 185.259V231.323M324.182 185.259H360.091M324.182 231.323V277.388M324.182 231.323H360.091M324.182 277.388V323.453M324.182 277.388H360.091M324.182 323.453V369.517M324.182 323.453H360.091M324.182 369.517V415.582M324.182 369.517H360.091M324.182 415.582V461.646M324.182 415.582H360.091M324.182 461.646V507.711M324.182 461.646H360.091M324.182 507.711V553.776M324.182 507.711H360.091M324.182 553.776V599.84M324.182 553.776H360.091M324.182 599.84V645.905M324.182 599.84H360.091M324.182 645.905V691.97M324.182 645.905H360.091M324.182 691.97V738.034M324.182 691.97H360.091M324.182 738.034V784.099M324.182 738.034H360.091M324.182 784.099V830.164M324.182 784.099H360.091M324.182 830.164V876.228M324.182 830.164H360.091M324.182 876.228H360.091M360.091 1V47.0646M360.091 1H396M360.091 47.0646V93.1293M360.091 47.0646H396M360.091 93.1293V139.194M360.091 93.1293H396M360.091 139.194V185.259M360.091 139.194H396M360.091 185.259V231.323M360.091 185.259H396M360.091 231.323V277.388M360.091 231.323H396M360.091 277.388V323.453M360.091 277.388H396M360.091 323.453V369.517M360.091 323.453H396M360.091 369.517V415.582M360.091 369.517H396M360.091 415.582V461.646M360.091 415.582H396M360.091 461.646V507.711M360.091 461.646H396M360.091 507.711V553.776M360.091 507.711H396M360.091 553.776V599.84M360.091 553.776H396M360.091 599.84V645.905M360.091 599.84H396M360.091 645.905V691.97M360.091 645.905H396M360.091 691.97V738.034M360.091 691.97H396M360.091 738.034V784.099M360.091 738.034H396M360.091 784.099V830.164M360.091 784.099H396M360.091 830.164V876.228M360.091 830.164H396M360.091 876.228H396M396 1V47.0646M396 1H431.909M396 47.0646V93.1293M396 47.0646H431.909M396 93.1293V139.194M396 93.1293H431.909M396 139.194V185.259M396 139.194H431.909M396 185.259V231.323M396 185.259H431.909M396 231.323V277.388M396 231.323H431.909M396 277.388V323.453M396 277.388H431.909M396 323.453V369.517M396 323.453H431.909M396 369.517V415.582M396 369.517H431.909M396 415.582V461.646M396 415.582H431.909M396 461.646V507.711M396 461.646H431.909M396 507.711V553.776M396 507.711H431.909M396 553.776V599.84M396 553.776H431.909M396 599.84V645.905M396 599.84H431.909M396 645.905V691.97M396 645.905H431.909M396 691.97V738.034M396 691.97H431.909M396 738.034V784.099M396 738.034H431.909M396 784.099V830.164M396 784.099H431.909M396 830.164V876.228M396 830.164H431.909M396 876.228H431.909M431.909 1V47.0646M431.909 1H467.818M431.909 47.0646V93.1293M431.909 47.0646H467.818M431.909 93.1293V139.194M431.909 93.1293H467.818M431.909 139.194V185.259M431.909 139.194H467.818M431.909 185.259V231.323M431.909 185.259H467.818M431.909 231.323V277.388M431.909 231.323H467.818M431.909 277.388V323.453M431.909 277.388H467.818M431.909 323.453V369.517M431.909 323.453H467.818M431.909 369.517V415.582M431.909 369.517H467.818M431.909 415.582V461.646M431.909 415.582H467.818M431.909 461.646V507.711M431.909 461.646H467.818M431.909 507.711V553.776M431.909 507.711H467.818M431.909 553.776V599.84M431.909 553.776H467.818M431.909 599.84V645.905M431.909 599.84H467.818M431.909 645.905V691.97M431.909 645.905H467.818M431.909 691.97V738.034M431.909 691.97H467.818M431.909 738.034V784.099M431.909 738.034H467.818M431.909 784.099V830.164M431.909 784.099H467.818M431.909 830.164V876.228M431.909 830.164H467.818M431.909 876.228H467.818M467.818 1V47.0646M467.818 1H503.727M467.818 47.0646V93.1293M467.818 47.0646H503.727M467.818 93.1293V139.194M467.818 93.1293H503.727M467.818 139.194V185.259M467.818 139.194H503.727M467.818 185.259V231.323M467.818 185.259H503.727M467.818 231.323V277.388M467.818 231.323H503.727M467.818 277.388V323.453M467.818 277.388H503.727M467.818 323.453V369.517M467.818 323.453H503.727M467.818 369.517V415.582M467.818 369.517H503.727M467.818 415.582V461.646M467.818 415.582H503.727M467.818 461.646V507.711M467.818 461.646H503.727M467.818 507.711V553.776M467.818 507.711H503.727M467.818 553.776V599.84M467.818 553.776H503.727M467.818 599.84V645.905M467.818 599.84H503.727M467.818 645.905V691.97M467.818 645.905H503.727M467.818 691.97V738.034M467.818 691.97H503.727M467.818 738.034V784.099M467.818 738.034H503.727M467.818 784.099V830.164M467.818 784.099H503.727M467.818 830.164V876.228M467.818 830.164H503.727M467.818 876.228H503.727M503.727 1V47.0646M503.727 1H539.636M503.727 47.0646V93.1293M503.727 47.0646H539.636M503.727 93.1293V139.194M503.727 93.1293H539.636M503.727 139.194V185.259M503.727 139.194H539.636M503.727 185.259V231.323M503.727 185.259H539.636M503.727 231.323V277.388M503.727 231.323H539.636M503.727 277.388V323.453M503.727 277.388H539.636M503.727 323.453V369.517M503.727 323.453H539.636M503.727 369.517V415.582M503.727 369.517H539.636M503.727 415.582V461.646M503.727 415.582H539.636M503.727 461.646V507.711M503.727 461.646H539.636M503.727 507.711V553.776M503.727 507.711H539.636M503.727 553.776V599.84M503.727 553.776H539.636M503.727 599.84V645.905M503.727 599.84H539.636M503.727 645.905V691.97M503.727 645.905H539.636M503.727 691.97V738.034M503.727 691.97H539.636M503.727 738.034V784.099M503.727 738.034H539.636M503.727 784.099V830.164M503.727 784.099H539.636M503.727 830.164V876.228M503.727 830.164H539.636M503.727 876.228H539.636M539.636 1V47.0646M539.636 1H575.545M539.636 47.0646V93.1293M539.636 47.0646H575.545M539.636 93.1293V139.194M539.636 93.1293H575.545M539.636 139.194V185.259M539.636 139.194H575.545M539.636 185.259V231.323M539.636 185.259H575.545M539.636 231.323V277.388M539.636 231.323H575.545M539.636 277.388V323.453M539.636 277.388H575.545M539.636 323.453V369.517M539.636 323.453H575.545M539.636 369.517V415.582M539.636 369.517H575.545M539.636 415.582V461.646M539.636 415.582H575.545M539.636 461.646V507.711M539.636 461.646H575.545M539.636 507.711V553.776M539.636 507.711H575.545M539.636 553.776V599.84M539.636 553.776H575.545M539.636 599.84V645.905M539.636 599.84H575.545M539.636 645.905V691.97M539.636 645.905H575.545M539.636 691.97V738.034M539.636 691.97H575.545M539.636 738.034V784.099M539.636 738.034H575.545M539.636 784.099V830.164M539.636 784.099H575.545M539.636 830.164V876.228M539.636 830.164H575.545M539.636 876.228H575.545M575.545 1V47.0646M575.545 1H611.455M575.545 47.0646V93.1293M575.545 47.0646H611.455M575.545 93.1293V139.194M575.545 93.1293H611.455M575.545 139.194V185.259M575.545 139.194H611.455M575.545 185.259V231.323M575.545 185.259H611.455M575.545 231.323V277.388M575.545 231.323H611.455M575.545 277.388V323.453M575.545 277.388H611.455M575.545 323.453V369.517M575.545 323.453H611.455M575.545 369.517V415.582M575.545 369.517H611.455M575.545 415.582V461.646M575.545 415.582H611.455M575.545 461.646V507.711M575.545 461.646H611.455M575.545 507.711V553.776M575.545 507.711H611.455M575.545 553.776V599.84M575.545 553.776H611.455M575.545 599.84V645.905M575.545 599.84H611.455M575.545 645.905V691.97M575.545 645.905H611.455M575.545 691.97V738.034M575.545 691.97H611.455M575.545 738.034V784.099M575.545 738.034H611.455M575.545 784.099V830.164M575.545 784.099H611.455M575.545 830.164V876.228M575.545 830.164H611.455M575.545 876.228H611.455M611.455 1V47.0646M611.455 1H647.364M611.455 47.0646V93.1293M611.455 47.0646H647.364M611.455 93.1293V139.194M611.455 93.1293H647.364M611.455 139.194V185.259M611.455 139.194H647.364M611.455 185.259V231.323M611.455 185.259H647.364M611.455 231.323V277.388M611.455 231.323H647.364M611.455 277.388V323.453M611.455 277.388H647.364M611.455 323.453V369.517M611.455 323.453H647.364M611.455 369.517V415.582M611.455 369.517H647.364M611.455 415.582V461.646M611.455 415.582H647.364M611.455 461.646V507.711M611.455 461.646H647.364M611.455 507.711V553.776M611.455 507.711H647.364M611.455 553.776V599.84M611.455 553.776H647.364M611.455 599.84V645.905M611.455 599.84H647.364M611.455 645.905V691.97M611.455 645.905H647.364M611.455 691.97V738.034M611.455 691.97H647.364M611.455 738.034V784.099M611.455 738.034H647.364M611.455 784.099V830.164M611.455 784.099H647.364M611.455 830.164V876.228M611.455 830.164H647.364M611.455 876.228H647.364M647.364 1V47.0646M647.364 1H683.273M647.364 47.0646V93.1293M647.364 47.0646H683.273M647.364 93.1293V139.194M647.364 93.1293H683.273M647.364 139.194V185.259M647.364 139.194H683.273M647.364 185.259V231.323M647.364 185.259H683.273M647.364 231.323V277.388M647.364 231.323H683.273M647.364 277.388V323.453M647.364 277.388H683.273M647.364 323.453V369.517M647.364 323.453H683.273M647.364 369.517V415.582M647.364 369.517H683.273M647.364 415.582V461.646M647.364 415.582H683.273M647.364 461.646V507.711M647.364 461.646H683.273M647.364 507.711V553.776M647.364 507.711H683.273M647.364 553.776V599.84M647.364 553.776H683.273M647.364 599.84V645.905M647.364 599.84H683.273M647.364 645.905V691.97M647.364 645.905H683.273M647.364 691.97V738.034M647.364 691.97H683.273M647.364 738.034V784.099M647.364 738.034H683.273M647.364 784.099V830.164M647.364 784.099H683.273M647.364 830.164V876.228M647.364 830.164H683.273M647.364 876.228H683.273M683.273 1V47.0646M683.273 1H719.182M683.273 47.0646V93.1293M683.273 47.0646H719.182M683.273 93.1293V139.194M683.273 93.1293H719.182M683.273 139.194V185.259M683.273 139.194H719.182M683.273 185.259V231.323M683.273 185.259H719.182M683.273 231.323V277.388M683.273 231.323H719.182M683.273 277.388V323.453M683.273 277.388H719.182M683.273 323.453V369.517M683.273 323.453H719.182M683.273 369.517V415.582M683.273 369.517H719.182M683.273 415.582V461.646M683.273 415.582H719.182M683.273 461.646V507.711M683.273 461.646H719.182M683.273 507.711V553.776M683.273 507.711H719.182M683.273 553.776V599.84M683.273 553.776H719.182M683.273 599.84V645.905M683.273 599.84H719.182M683.273 645.905V691.97M683.273 645.905H719.182M683.273 691.97V738.034M683.273 691.97H719.182M683.273 738.034V784.099M683.273 738.034H719.182M683.273 784.099V830.164M683.273 784.099H719.182M683.273 830.164V876.228M683.273 830.164H719.182M683.273 876.228H719.182M719.182 1V47.0646M719.182 1H755.091M719.182 47.0646V93.1293M719.182 47.0646H755.091M719.182 93.1293V139.194M719.182 93.1293H755.091M719.182 139.194V185.259M719.182 139.194H755.091M719.182 185.259V231.323M719.182 185.259H755.091M719.182 231.323V277.388M719.182 231.323H755.091M719.182 277.388V323.453M719.182 277.388H755.091M719.182 323.453V369.517M719.182 323.453H755.091M719.182 369.517V415.582M719.182 369.517H755.091M719.182 415.582V461.646M719.182 415.582H755.091M719.182 461.646V507.711M719.182 461.646H755.091M719.182 507.711V553.776M719.182 507.711H755.091M719.182 553.776V599.84M719.182 553.776H755.091M719.182 599.84V645.905M719.182 599.84H755.091M719.182 645.905V691.97M719.182 645.905H755.091M719.182 691.97V738.034M719.182 691.97H755.091M719.182 738.034V784.099M719.182 738.034H755.091M719.182 784.099V830.164M719.182 784.099H755.091M719.182 830.164V876.228M719.182 830.164H755.091M719.182 876.228H755.091M755.091 1V47.0646M755.091 1H791M755.091 47.0646V93.1293M755.091 47.0646H791M755.091 93.1293V139.194M755.091 93.1293H791M755.091 139.194V185.259M755.091 139.194H791M755.091 185.259V231.323M755.091 185.259H791M755.091 231.323V277.388M755.091 231.323H791M755.091 277.388V323.453M755.091 277.388H791M755.091 323.453V369.517M755.091 323.453H791M755.091 369.517V415.582M755.091 369.517H791M755.091 415.582V461.646M755.091 415.582H791M755.091 461.646V507.711M755.091 461.646H791M755.091 507.711V553.776M755.091 507.711H791M755.091 553.776V599.84M755.091 553.776H791M755.091 599.84V645.905M755.091 599.84H791M755.091 645.905V691.97M755.091 645.905H791M755.091 691.97V738.034M755.091 691.97H791M755.091 738.034V784.099M755.091 738.034H791M755.091 784.099V830.164M755.091 784.099H791M755.091 830.164V876.228M755.091 830.164H791M755.091 876.228H791M791 1V47.0646M791 1H826.909M791 47.0646V93.1293M791 47.0646H826.909M791 93.1293V139.194M791 93.1293H826.909M791 139.194V185.259M791 139.194H826.909M791 185.259V231.323M791 185.259H826.909M791 231.323V277.388M791 231.323H826.909M791 277.388V323.453M791 277.388H826.909M791 323.453V369.517M791 323.453H826.909M791 369.517V415.582M791 369.517H826.909M791 415.582V461.646M791 415.582H826.909M791 461.646V507.711M791 461.646H826.909M791 507.711V553.776M791 507.711H826.909M791 553.776V599.84M791 553.776H826.909M791 599.84V645.905M791 599.84H826.909M791 645.905V691.97M791 645.905H826.909M791 691.97V738.034M791 691.97H826.909M791 738.034V784.099M791 738.034H826.909M791 784.099V830.164M791 784.099H826.909M791 830.164V876.228M791 830.164H826.909M791 876.228H826.909M826.909 1V47.0646M826.909 1H862.818M826.909 47.0646V93.1293M826.909 47.0646H862.818M826.909 93.1293V139.194M826.909 93.1293H862.818M826.909 139.194V185.259M826.909 139.194H862.818M826.909 185.259V231.323M826.909 185.259H862.818M826.909 231.323V277.388M826.909 231.323H862.818M826.909 277.388V323.453M826.909 277.388H862.818M826.909 323.453V369.517M826.909 323.453H862.818M826.909 369.517V415.582M826.909 369.517H862.818M826.909 415.582V461.646M826.909 415.582H862.818M826.909 461.646V507.711M826.909 461.646H862.818M826.909 507.711V553.776M826.909 507.711H862.818M826.909 553.776V599.84M826.909 553.776H862.818M826.909 599.84V645.905M826.909 599.84H862.818M826.909 645.905V691.97M826.909 645.905H862.818M826.909 691.97V738.034M826.909 691.97H862.818M826.909 738.034V784.099M826.909 738.034H862.818M826.909 784.099V830.164M826.909 784.099H862.818M826.909 830.164V876.228M826.909 830.164H862.818M826.909 876.228H862.818M862.818 1V47.0646M862.818 1H898.727M862.818 47.0646V93.1293M862.818 47.0646H898.727M862.818 93.1293V139.194M862.818 93.1293H898.727M862.818 139.194V185.259M862.818 139.194H898.727M862.818 185.259V231.323M862.818 185.259H898.727M862.818 231.323V277.388M862.818 231.323H898.727M862.818 277.388V323.453M862.818 277.388H898.727M862.818 323.453V369.517M862.818 323.453H898.727M862.818 369.517V415.582M862.818 369.517H898.727M862.818 415.582V461.646M862.818 415.582H898.727M862.818 461.646V507.711M862.818 461.646H898.727M862.818 507.711V553.776M862.818 507.711H898.727M862.818 553.776V599.84M862.818 553.776H898.727M862.818 599.84V645.905M862.818 599.84H898.727M862.818 645.905V691.97M862.818 645.905H898.727M862.818 691.97V738.034M862.818 691.97H898.727M862.818 738.034V784.099M862.818 738.034H898.727M862.818 784.099V830.164M862.818 784.099H898.727M862.818 830.164V876.228M862.818 830.164H898.727M862.818 876.228H898.727M898.727 1V47.0646M898.727 1H934.636M898.727 47.0646V93.1293M898.727 47.0646H934.636M898.727 93.1293V139.194M898.727 93.1293H934.636M898.727 139.194V185.259M898.727 139.194H934.636M898.727 185.259V231.323M898.727 185.259H934.636M898.727 231.323V277.388M898.727 231.323H934.636M898.727 277.388V323.453M898.727 277.388H934.636M898.727 323.453V369.517M898.727 323.453H934.636M898.727 369.517V415.582M898.727 369.517H934.636M898.727 415.582V461.646M898.727 415.582H934.636M898.727 461.646V507.711M898.727 461.646H934.636M898.727 507.711V553.776M898.727 507.711H934.636M898.727 553.776V599.84M898.727 553.776H934.636M898.727 599.84V645.905M898.727 599.84H934.636M898.727 645.905V691.97M898.727 645.905H934.636M898.727 691.97V738.034M898.727 691.97H934.636M898.727 738.034V784.099M898.727 738.034H934.636M898.727 784.099V830.164M898.727 784.099H934.636M898.727 830.164V876.228M898.727 830.164H934.636M898.727 876.228H934.636M934.636 1V47.0646M934.636 1H970.545M934.636 47.0646V93.1293M934.636 47.0646H970.545M934.636 93.1293V139.194M934.636 93.1293H970.545M934.636 139.194V185.259M934.636 139.194H970.545M934.636 185.259V231.323M934.636 185.259H970.545M934.636 231.323V277.388M934.636 231.323H970.545M934.636 277.388V323.453M934.636 277.388H970.545M934.636 323.453V369.517M934.636 323.453H970.545M934.636 369.517V415.582M934.636 369.517H970.545M934.636 415.582V461.646M934.636 415.582H970.545M934.636 461.646V507.711M934.636 461.646H970.545M934.636 507.711V553.776M934.636 507.711H970.545M934.636 553.776V599.84M934.636 553.776H970.545M934.636 599.84V645.905M934.636 599.84H970.545M934.636 645.905V691.97M934.636 645.905H970.545M934.636 691.97V738.034M934.636 691.97H970.545M934.636 738.034V784.099M934.636 738.034H970.545M934.636 784.099V830.164M934.636 784.099H970.545M934.636 830.164V876.228M934.636 830.164H970.545M934.636 876.228H970.545M970.545 1V47.0646M970.545 1H1006.45M970.545 47.0646V93.1293M970.545 47.0646H1006.45M970.545 93.1293V139.194M970.545 93.1293H1006.45M970.545 139.194V185.259M970.545 139.194H1006.45M970.545 185.259V231.323M970.545 185.259H1006.45M970.545 231.323V277.388M970.545 231.323H1006.45M970.545 277.388V323.453M970.545 277.388H1006.45M970.545 323.453V369.517M970.545 323.453H1006.45M970.545 369.517V415.582M970.545 369.517H1006.45M970.545 415.582V461.646M970.545 415.582H1006.45M970.545 461.646V507.711M970.545 461.646H1006.45M970.545 507.711V553.776M970.545 507.711H1006.45M970.545 553.776V599.84M970.545 553.776H1006.45M970.545 599.84V645.905M970.545 599.84H1006.45M970.545 645.905V691.97M970.545 645.905H1006.45M970.545 691.97V738.034M970.545 691.97H1006.45M970.545 738.034V784.099M970.545 738.034H1006.45M970.545 784.099V830.164M970.545 784.099H1006.45M970.545 830.164V876.228M970.545 830.164H1006.45M970.545 876.228H1006.45M1006.45 1V47.0646M1006.45 1H1042.36M1006.45 47.0646V93.1293M1006.45 47.0646H1042.36M1006.45 93.1293V139.194M1006.45 93.1293H1042.36M1006.45 139.194V185.259M1006.45 139.194H1042.36M1006.45 185.259V231.323M1006.45 185.259H1042.36M1006.45 231.323V277.388M1006.45 231.323H1042.36M1006.45 277.388V323.453M1006.45 277.388H1042.36M1006.45 323.453V369.517M1006.45 323.453H1042.36M1006.45 369.517V415.582M1006.45 369.517H1042.36M1006.45 415.582V461.646M1006.45 415.582H1042.36M1006.45 461.646V507.711M1006.45 461.646H1042.36M1006.45 507.711V553.776M1006.45 507.711H1042.36M1006.45 553.776V599.84M1006.45 553.776H1042.36M1006.45 599.84V645.905M1006.45 599.84H1042.36M1006.45 645.905V691.97M1006.45 645.905H1042.36M1006.45 691.97V738.034M1006.45 691.97H1042.36M1006.45 738.034V784.099M1006.45 738.034H1042.36M1006.45 784.099V830.164M1006.45 784.099H1042.36M1006.45 830.164V876.228M1006.45 830.164H1042.36M1006.45 876.228H1042.36M1042.36 1V47.0646M1042.36 1H1078.27M1042.36 47.0646V93.1293M1042.36 47.0646H1078.27M1042.36 93.1293V139.194M1042.36 93.1293H1078.27M1042.36 139.194V185.259M1042.36 139.194H1078.27M1042.36 185.259V231.323M1042.36 185.259H1078.27M1042.36 231.323V277.388M1042.36 231.323H1078.27M1042.36 277.388V323.453M1042.36 277.388H1078.27M1042.36 323.453V369.517M1042.36 323.453H1078.27M1042.36 369.517V415.582M1042.36 369.517H1078.27M1042.36 415.582V461.646M1042.36 415.582H1078.27M1042.36 461.646V507.711M1042.36 461.646H1078.27M1042.36 507.711V553.776M1042.36 507.711H1078.27M1042.36 553.776V599.84M1042.36 553.776H1078.27M1042.36 599.84V645.905M1042.36 599.84H1078.27M1042.36 645.905V691.97M1042.36 645.905H1078.27M1042.36 691.97V738.034M1042.36 691.97H1078.27M1042.36 738.034V784.099M1042.36 738.034H1078.27M1042.36 784.099V830.164M1042.36 784.099H1078.27M1042.36 830.164V876.228M1042.36 830.164H1078.27M1042.36 876.228H1078.27M1078.27 1V47.0646M1078.27 1H1114.18M1078.27 47.0646V93.1293M1078.27 47.0646H1114.18M1078.27 93.1293V139.194M1078.27 93.1293H1114.18M1078.27 139.194V185.259M1078.27 139.194H1114.18M1078.27 185.259V231.323M1078.27 185.259H1114.18M1078.27 231.323V277.388M1078.27 231.323H1114.18M1078.27 277.388V323.453M1078.27 277.388H1114.18M1078.27 323.453V369.517M1078.27 323.453H1114.18M1078.27 369.517V415.582M1078.27 369.517H1114.18M1078.27 415.582V461.646M1078.27 415.582H1114.18M1078.27 461.646V507.711M1078.27 461.646H1114.18M1078.27 507.711V553.776M1078.27 507.711H1114.18M1078.27 553.776V599.84M1078.27 553.776H1114.18M1078.27 599.84V645.905M1078.27 599.84H1114.18M1078.27 645.905V691.97M1078.27 645.905H1114.18M1078.27 691.97V738.034M1078.27 691.97H1114.18M1078.27 738.034V784.099M1078.27 738.034H1114.18M1078.27 784.099V830.164M1078.27 784.099H1114.18M1078.27 830.164V876.228M1078.27 830.164H1114.18M1078.27 876.228H1114.18M1114.18 1V47.0646M1114.18 1H1150.09M1114.18 47.0646V93.1293M1114.18 47.0646H1150.09M1114.18 93.1293V139.194M1114.18 93.1293H1150.09M1114.18 139.194V185.259M1114.18 139.194H1150.09M1114.18 185.259V231.323M1114.18 185.259H1150.09M1114.18 231.323V277.388M1114.18 231.323H1150.09M1114.18 277.388V323.453M1114.18 277.388H1150.09M1114.18 323.453V369.517M1114.18 323.453H1150.09M1114.18 369.517V415.582M1114.18 369.517H1150.09M1114.18 415.582V461.646M1114.18 415.582H1150.09M1114.18 461.646V507.711M1114.18 461.646H1150.09M1114.18 507.711V553.776M1114.18 507.711H1150.09M1114.18 553.776V599.84M1114.18 553.776H1150.09M1114.18 599.84V645.905M1114.18 599.84H1150.09M1114.18 645.905V691.97M1114.18 645.905H1150.09M1114.18 691.97V738.034M1114.18 691.97H1150.09M1114.18 738.034V784.099M1114.18 738.034H1150.09M1114.18 784.099V830.164M1114.18 784.099H1150.09M1114.18 830.164V876.228M1114.18 830.164H1150.09M1114.18 876.228H1150.09M1150.09 1V47.0646M1150.09 1H1186M1150.09 47.0646V93.1293M1150.09 47.0646H1186M1150.09 93.1293V139.194M1150.09 93.1293H1186M1150.09 139.194V185.259M1150.09 139.194H1186M1150.09 185.259V231.323M1150.09 185.259H1186M1150.09 231.323V277.388M1150.09 231.323H1186M1150.09 277.388V323.453M1150.09 277.388H1186M1150.09 323.453V369.517M1150.09 323.453H1186M1150.09 369.517V415.582M1150.09 369.517H1186M1150.09 415.582V461.646M1150.09 415.582H1186M1150.09 461.646V507.711M1150.09 461.646H1186M1150.09 507.711V553.776M1150.09 507.711H1186M1150.09 553.776V599.84M1150.09 553.776H1186M1150.09 599.84V645.905M1150.09 599.84H1186M1150.09 645.905V691.97M1150.09 645.905H1186M1150.09 691.97V738.034M1150.09 691.97H1186M1150.09 738.034V784.099M1150.09 738.034H1186M1150.09 784.099V830.164M1150.09 784.099H1186M1150.09 830.164V876.228M1150.09 830.164H1186M1150.09 876.228H1186M1186 1V47.0646M1186 1H1221.91M1186 47.0646V93.1293M1186 47.0646H1221.91M1186 93.1293V139.194M1186 93.1293H1221.91M1186 139.194V185.259M1186 139.194H1221.91M1186 185.259V231.323M1186 185.259H1221.91M1186 231.323V277.388M1186 231.323H1221.91M1186 277.388V323.453M1186 277.388H1221.91M1186 323.453V369.517M1186 323.453H1221.91M1186 369.517V415.582M1186 369.517H1221.91M1186 415.582V461.646M1186 415.582H1221.91M1186 461.646V507.711M1186 461.646H1221.91M1186 507.711V553.776M1186 507.711H1221.91M1186 553.776V599.84M1186 553.776H1221.91M1186 599.84V645.905M1186 599.84H1221.91M1186 645.905V691.97M1186 645.905H1221.91M1186 691.97V738.034M1186 691.97H1221.91M1186 738.034V784.099M1186 738.034H1221.91M1186 784.099V830.164M1186 784.099H1221.91M1186 830.164V876.228M1186 830.164H1221.91M1186 876.228H1221.91M1221.91 1V47.0646M1221.91 1H1257.82M1221.91 47.0646V93.1293M1221.91 47.0646H1257.82M1221.91 93.1293V139.194M1221.91 93.1293H1257.82M1221.91 139.194V185.259M1221.91 139.194H1257.82M1221.91 185.259V231.323M1221.91 185.259H1257.82M1221.91 231.323V277.388M1221.91 231.323H1257.82M1221.91 277.388V323.453M1221.91 277.388H1257.82M1221.91 323.453V369.517M1221.91 323.453H1257.82M1221.91 369.517V415.582M1221.91 369.517H1257.82M1221.91 415.582V461.646M1221.91 415.582H1257.82M1221.91 461.646V507.711M1221.91 461.646H1257.82M1221.91 507.711V553.776M1221.91 507.711H1257.82M1221.91 553.776V599.84M1221.91 553.776H1257.82M1221.91 599.84V645.905M1221.91 599.84H1257.82M1221.91 645.905V691.97M1221.91 645.905H1257.82M1221.91 691.97V738.034M1221.91 691.97H1257.82M1221.91 738.034V784.099M1221.91 738.034H1257.82M1221.91 784.099V830.164M1221.91 784.099H1257.82M1221.91 830.164V876.228M1221.91 830.164H1257.82M1221.91 876.228H1257.82M1257.82 1V47.0646M1257.82 1H1293.73M1257.82 47.0646V93.1293M1257.82 47.0646H1293.73M1257.82 93.1293V139.194M1257.82 93.1293H1293.73M1257.82 139.194V185.259M1257.82 139.194H1293.73M1257.82 185.259V231.323M1257.82 185.259H1293.73M1257.82 231.323V277.388M1257.82 231.323H1293.73M1257.82 277.388V323.453M1257.82 277.388H1293.73M1257.82 323.453V369.517M1257.82 323.453H1293.73M1257.82 369.517V415.582M1257.82 369.517H1293.73M1257.82 415.582V461.646M1257.82 415.582H1293.73M1257.82 461.646V507.711M1257.82 461.646H1293.73M1257.82 507.711V553.776M1257.82 507.711H1293.73M1257.82 553.776V599.84M1257.82 553.776H1293.73M1257.82 599.84V645.905M1257.82 599.84H1293.73M1257.82 645.905V691.97M1257.82 645.905H1293.73M1257.82 691.97V738.034M1257.82 691.97H1293.73M1257.82 738.034V784.099M1257.82 738.034H1293.73M1257.82 784.099V830.164M1257.82 784.099H1293.73M1257.82 830.164V876.228M1257.82 830.164H1293.73M1257.82 876.228H1293.73M1293.73 1V47.0646M1293.73 1H1329.64M1293.73 47.0646V93.1293M1293.73 47.0646H1329.64M1293.73 93.1293V139.194M1293.73 93.1293H1329.64M1293.73 139.194V185.259M1293.73 139.194H1329.64M1293.73 185.259V231.323M1293.73 185.259H1329.64M1293.73 231.323V277.388M1293.73 231.323H1329.64M1293.73 277.388V323.453M1293.73 277.388H1329.64M1293.73 323.453V369.517M1293.73 323.453H1329.64M1293.73 369.517V415.582M1293.73 369.517H1329.64M1293.73 415.582V461.646M1293.73 415.582H1329.64M1293.73 461.646V507.711M1293.73 461.646H1329.64M1293.73 507.711V553.776M1293.73 507.711H1329.64M1293.73 553.776V599.84M1293.73 553.776H1329.64M1293.73 599.84V645.905M1293.73 599.84H1329.64M1293.73 645.905V691.97M1293.73 645.905H1329.64M1293.73 691.97V738.034M1293.73 691.97H1329.64M1293.73 738.034V784.099M1293.73 738.034H1329.64M1293.73 784.099V830.164M1293.73 784.099H1329.64M1293.73 830.164V876.228M1293.73 830.164H1329.64M1293.73 876.228H1329.64M1329.64 1V47.0646M1329.64 1H1365.55M1329.64 47.0646V93.1293M1329.64 47.0646H1365.55M1329.64 93.1293V139.194M1329.64 93.1293H1365.55M1329.64 139.194V185.259M1329.64 139.194H1365.55M1329.64 185.259V231.323M1329.64 185.259H1365.55M1329.64 231.323V277.388M1329.64 231.323H1365.55M1329.64 277.388V323.453M1329.64 277.388H1365.55M1329.64 323.453V369.517M1329.64 323.453H1365.55M1329.64 369.517V415.582M1329.64 369.517H1365.55M1329.64 415.582V461.646M1329.64 415.582H1365.55M1329.64 461.646V507.711M1329.64 461.646H1365.55M1329.64 507.711V553.776M1329.64 507.711H1365.55M1329.64 553.776V599.84M1329.64 553.776H1365.55M1329.64 599.84V645.905M1329.64 599.84H1365.55M1329.64 645.905V691.97M1329.64 645.905H1365.55M1329.64 691.97V738.034M1329.64 691.97H1365.55M1329.64 738.034V784.099M1329.64 738.034H1365.55M1329.64 784.099V830.164M1329.64 784.099H1365.55M1329.64 830.164V876.228M1329.64 830.164H1365.55M1329.64 876.228H1365.55M1365.55 1V47.0646M1365.55 1H1401.45M1365.55 47.0646V93.1293M1365.55 47.0646H1401.45M1365.55 93.1293V139.194M1365.55 93.1293H1401.45M1365.55 139.194V185.259M1365.55 139.194H1401.45M1365.55 185.259V231.323M1365.55 185.259H1401.45M1365.55 231.323V277.388M1365.55 231.323H1401.45M1365.55 277.388V323.453M1365.55 277.388H1401.45M1365.55 323.453V369.517M1365.55 323.453H1401.45M1365.55 369.517V415.582M1365.55 369.517H1401.45M1365.55 415.582V461.646M1365.55 415.582H1401.45M1365.55 461.646V507.711M1365.55 461.646H1401.45M1365.55 507.711V553.776M1365.55 507.711H1401.45M1365.55 553.776V599.84M1365.55 553.776H1401.45M1365.55 599.84V645.905M1365.55 599.84H1401.45M1365.55 645.905V691.97M1365.55 645.905H1401.45M1365.55 691.97V738.034M1365.55 691.97H1401.45M1365.55 738.034V784.099M1365.55 738.034H1401.45M1365.55 784.099V830.164M1365.55 784.099H1401.45M1365.55 830.164V876.228M1365.55 830.164H1401.45M1365.55 876.228H1401.45M1401.45 1V47.0646M1401.45 1H1437.36M1401.45 47.0646V93.1293M1401.45 47.0646H1437.36M1401.45 93.1293V139.194M1401.45 93.1293H1437.36M1401.45 139.194V185.259M1401.45 139.194H1437.36M1401.45 185.259V231.323M1401.45 185.259H1437.36M1401.45 231.323V277.388M1401.45 231.323H1437.36M1401.45 277.388V323.453M1401.45 277.388H1437.36M1401.45 323.453V369.517M1401.45 323.453H1437.36M1401.45 369.517V415.582M1401.45 369.517H1437.36M1401.45 415.582V461.646M1401.45 415.582H1437.36M1401.45 461.646V507.711M1401.45 461.646H1437.36M1401.45 507.711V553.776M1401.45 507.711H1437.36M1401.45 553.776V599.84M1401.45 553.776H1437.36M1401.45 599.84V645.905M1401.45 599.84H1437.36M1401.45 645.905V691.97M1401.45 645.905H1437.36M1401.45 691.97V738.034M1401.45 691.97H1437.36M1401.45 738.034V784.099M1401.45 738.034H1437.36M1401.45 784.099V830.164M1401.45 784.099H1437.36M1401.45 830.164V876.228M1401.45 830.164H1437.36M1401.45 876.228H1437.36M1437.36 1V47.0646M1437.36 1H1473.27M1437.36 47.0646V93.1293M1437.36 47.0646H1473.27M1437.36 93.1293V139.194M1437.36 93.1293H1473.27M1437.36 139.194V185.259M1437.36 139.194H1473.27M1437.36 185.259V231.323M1437.36 185.259H1473.27M1437.36 231.323V277.388M1437.36 231.323H1473.27M1437.36 277.388V323.453M1437.36 277.388H1473.27M1437.36 323.453V369.517M1437.36 323.453H1473.27M1437.36 369.517V415.582M1437.36 369.517H1473.27M1437.36 415.582V461.646M1437.36 415.582H1473.27M1437.36 461.646V507.711M1437.36 461.646H1473.27M1437.36 507.711V553.776M1437.36 507.711H1473.27M1437.36 553.776V599.84M1437.36 553.776H1473.27M1437.36 599.84V645.905M1437.36 599.84H1473.27M1437.36 645.905V691.97M1437.36 645.905H1473.27M1437.36 691.97V738.034M1437.36 691.97H1473.27M1437.36 738.034V784.099M1437.36 738.034H1473.27M1437.36 784.099V830.164M1437.36 784.099H1473.27M1437.36 830.164V876.228M1437.36 830.164H1473.27M1437.36 876.228H1473.27M1473.27 1V47.0646M1473.27 1H1509.18M1473.27 47.0646V93.1293M1473.27 47.0646H1509.18M1473.27 93.1293V139.194M1473.27 93.1293H1509.18M1473.27 139.194V185.259M1473.27 139.194H1509.18M1473.27 185.259V231.323M1473.27 185.259H1509.18M1473.27 231.323V277.388M1473.27 231.323H1509.18M1473.27 277.388V323.453M1473.27 277.388H1509.18M1473.27 323.453V369.517M1473.27 323.453H1509.18M1473.27 369.517V415.582M1473.27 369.517H1509.18M1473.27 415.582V461.646M1473.27 415.582H1509.18M1473.27 461.646V507.711M1473.27 461.646H1509.18M1473.27 507.711V553.776M1473.27 507.711H1509.18M1473.27 553.776V599.84M1473.27 553.776H1509.18M1473.27 599.84V645.905M1473.27 599.84H1509.18M1473.27 645.905V691.97M1473.27 645.905H1509.18M1473.27 691.97V738.034M1473.27 691.97H1509.18M1473.27 738.034V784.099M1473.27 738.034H1509.18M1473.27 784.099V830.164M1473.27 784.099H1509.18M1473.27 830.164V876.228M1473.27 830.164H1509.18M1473.27 876.228H1509.18M1509.18 1V47.0646M1509.18 1H1545.09M1509.18 47.0646V93.1293M1509.18 47.0646H1545.09M1509.18 93.1293V139.194M1509.18 93.1293H1545.09M1509.18 139.194V185.259M1509.18 139.194H1545.09M1509.18 185.259V231.323M1509.18 185.259H1545.09M1509.18 231.323V277.388M1509.18 231.323H1545.09M1509.18 277.388V323.453M1509.18 277.388H1545.09M1509.18 323.453V369.517M1509.18 323.453H1545.09M1509.18 369.517V415.582M1509.18 369.517H1545.09M1509.18 415.582V461.646M1509.18 415.582H1545.09M1509.18 461.646V507.711M1509.18 461.646H1545.09M1509.18 507.711V553.776M1509.18 507.711H1545.09M1509.18 553.776V599.84M1509.18 553.776H1545.09M1509.18 599.84V645.905M1509.18 599.84H1545.09M1509.18 645.905V691.97M1509.18 645.905H1545.09M1509.18 691.97V738.034M1509.18 691.97H1545.09M1509.18 738.034V784.099M1509.18 738.034H1545.09M1509.18 784.099V830.164M1509.18 784.099H1545.09M1509.18 830.164V876.228M1509.18 830.164H1545.09M1509.18 876.228H1545.09M1545.09 1V47.0646M1545.09 1H1581V47.0646M1545.09 47.0646V93.1293M1545.09 47.0646H1581M1545.09 93.1293V139.194M1545.09 93.1293H1581M1545.09 139.194V185.259M1545.09 139.194H1581M1545.09 185.259V231.323M1545.09 185.259H1581M1545.09 231.323V277.388M1545.09 231.323H1581M1545.09 277.388V323.453M1545.09 277.388H1581M1545.09 323.453V369.517M1545.09 323.453H1581M1545.09 369.517V415.582M1545.09 369.517H1581M1545.09 415.582V461.646M1545.09 415.582H1581M1545.09 461.646V507.711M1545.09 461.646H1581M1545.09 507.711V553.776M1545.09 507.711H1581M1545.09 553.776V599.84M1545.09 553.776H1581M1545.09 599.84V645.905M1545.09 599.84H1581M1545.09 645.905V691.97M1545.09 645.905H1581M1545.09 691.97V738.034M1545.09 691.97H1581M1545.09 738.034V784.099M1545.09 738.034H1581M1545.09 784.099V830.164M1545.09 784.099H1581M1545.09 830.164V876.228M1545.09 830.164H1581M1545.09 876.228H1581V830.164M1581 47.0646V93.1293M1581 93.1293V139.194M1581 139.194V185.259M1581 185.259V231.323M1581 231.323V277.388M1581 277.388V323.453M1581 323.453V369.517M1581 369.517V415.582M1581 415.582V461.646M1581 461.646V507.711M1581 507.711V553.776M1581 553.776V599.84M1581 599.84V645.905M1581 645.905V691.97M1581 691.97V738.034M1581 738.034V784.099M1581 784.099V830.164" stroke="url(#paint0_radial_80_171)" stroke-width="0.897516"/>
</g>
<defs>
<radialGradient id="paint0_radial_80_171" cx="0" cy="0" r="1" gradientUnits="userSpaceOnUse" gradientTransform="translate(791 438.614) rotate(90) scale(437.614 637.939)">
<stop stop-color="white"/>
<stop offset="1" stop-color="white" stop-opacity="0.2"/>
</radialGradient>
</defs>
</svg>
