<svg width="360" height="97" viewBox="0 0 360 97" fill="none" xmlns="http://www.w3.org/2000/svg">
<path d="M1.16373 35.008C3.44256 40.4404 9.69378 42.9969 15.1262 40.718C20.5586 38.4392 23.1151 32.188 20.8363 26.7556C18.5574 21.3232 12.3062 18.7667 6.8738 21.0455C1.44138 23.3243 -1.11511 29.5756 1.16373 35.008ZM150.133 85.6558L149.418 83.7879L150.133 85.6558ZM9.19703 31.7474C16.6394 47.2488 32.6094 68.5714 56.4434 82.3462C80.364 96.1711 112.125 102.337 150.847 87.5238L149.418 83.7879C111.879 98.149 81.3749 92.1353 58.445 78.883C35.4285 65.5807 19.9627 44.9289 12.803 30.0162L9.19703 31.7474ZM150.847 87.5238C174.853 78.3402 197.938 64.6352 222.012 51.0975C246.143 37.5272 271.355 24.0699 299.862 15.1375C356.716 -2.67767 427.016 -2.59673 527.937 51.7303L529.833 48.2082C428.107 -6.55255 356.694 -6.86247 298.666 11.3205C269.731 20.3872 244.208 34.0262 220.051 47.611C195.835 61.2284 173.076 74.7373 149.418 83.7879L150.847 87.5238Z" fill="url(#paint0_linear_54_152)" fill-opacity="0.79"/>
<defs>
<linearGradient id="paint0_linear_54_152" x1="53.1521" y1="131.366" x2="486.733" y2="-50.5154" gradientUnits="userSpaceOnUse">
<stop stop-color="#FFF7D2"/>
<stop offset="0.504738" stop-color="#6B42C2"/>
<stop offset="1" stop-color="#563B9C"/>
</linearGradient>
</defs>
</svg>
