<svg width="1540" height="436" viewBox="0 0 1540 436" fill="none" xmlns="http://www.w3.org/2000/svg">
<path opacity="0.95" fill-rule="evenodd" clip-rule="evenodd" d="M1697.21 42.8974C1789.23 89.6938 1853.07 166.016 1884.22 222.874L1833.44 250.693C1806.83 202.126 1750.8 135.106 1670.97 94.5057C1592.42 54.561 1489.63 39.451 1365.12 94.9019C1294.67 126.278 1227.2 169.389 1155.02 215.514C1144.63 222.151 1134.15 228.85 1123.54 235.585C1040.05 288.616 950.208 343.096 846.694 381.734C637.416 459.85 377.147 471.456 0.24249 293.91L24.9158 241.532C389.838 413.434 633.85 399.382 826.447 327.491C923.872 291.126 1009.37 239.514 1092.5 186.712C1102.88 180.118 1113.25 173.491 1123.61 166.869C1195.38 120.981 1266.84 75.2923 1341.57 42.0116C1482.82 -20.8955 1603.9 -4.55458 1697.21 42.8974Z" fill="url(#paint0_linear_54_148)"/>
<defs>
<linearGradient id="paint0_linear_54_148" x1="-366" y1="471" x2="1742" y2="42" gradientUnits="userSpaceOnUse">
<stop offset="0.216015" stop-color="#22141D" stop-opacity="0"/>
<stop offset="0.771579" stop-color="#0E0C24"/>
</linearGradient>
</defs>
</svg>
