<svg width="1563" height="379" viewBox="0 0 1563 379" fill="none" xmlns="http://www.w3.org/2000/svg">
<path opacity="0.8" fill-rule="evenodd" clip-rule="evenodd" d="M45.7349 207.852C-24.1386 148.627 -63.6346 69.6771 -78.897 14.2175L-29.3686 0.587278C-16.3316 47.9602 18.3283 117.282 78.9501 168.666C138.593 219.22 224.239 253.29 343.077 230.888C410.319 218.211 477.386 194.794 549.143 169.738C559.467 166.133 569.889 162.494 580.422 158.849C663.353 130.145 752.061 101.489 849.332 89.3059C1045.99 64.6751 1273.06 107.897 1562.14 338.28L1530.13 378.453C1250.24 155.393 1036.7 117.61 855.716 140.277C764.167 151.744 679.798 178.813 597.224 207.393C586.912 210.962 576.608 214.563 566.311 218.161C494.959 243.096 423.918 267.923 352.593 281.368C217.776 306.783 116.587 267.907 45.7349 207.852Z" fill="url(#paint0_linear_54_150)" fill-opacity="0.25"/>
<defs>
<linearGradient id="paint0_linear_54_150" x1="1550" y1="20" x2="78.0001" y2="66" gradientUnits="userSpaceOnUse">
<stop offset="0.235" stop-color="#714CCD" stop-opacity="0"/>
<stop offset="1" stop-color="#782FFF"/>
</linearGradient>
</defs>
</svg>
