<svg width="25" height="24" viewBox="0 0 25 24" fill="none" xmlns="http://www.w3.org/2000/svg">
<path fill-rule="evenodd" clip-rule="evenodd" d="M5.8988 5.44396C6.03865 5.30428 6.22822 5.22583 6.42587 5.22583C6.62353 5.22583 6.8131 5.30428 6.95295 5.44396L18.8868 17.3778C18.9601 17.4461 19.0189 17.5285 19.0596 17.6199C19.1004 17.7114 19.1223 17.8102 19.1241 17.9104C19.1259 18.0105 19.1074 18.11 19.0699 18.2029C19.0324 18.2957 18.9766 18.3801 18.9058 18.4509C18.8349 18.5217 18.7506 18.5776 18.6577 18.6151C18.5648 18.6526 18.4653 18.671 18.3652 18.6693C18.265 18.6675 18.1663 18.6456 18.0748 18.6048C17.9833 18.564 17.9009 18.5053 17.8327 18.432L5.8988 6.49812C5.75912 6.35827 5.68066 6.1687 5.68066 5.97104C5.68066 5.77339 5.75912 5.58381 5.8988 5.44396Z" fill="white"/>
<path fill-rule="evenodd" clip-rule="evenodd" d="M18.8869 5.44396C19.0266 5.58381 19.1051 5.77339 19.1051 5.97104C19.1051 6.1687 19.0266 6.35827 18.8869 6.49812L6.95307 18.432C6.81168 18.5637 6.62467 18.6355 6.43144 18.6321C6.23821 18.6286 6.05385 18.5504 5.91719 18.4137C5.78053 18.2771 5.70226 18.0927 5.69885 17.8995C5.69544 17.7062 5.76716 17.5192 5.89891 17.3778L17.8328 5.44396C17.9726 5.30428 18.1622 5.22583 18.3599 5.22583C18.5575 5.22583 18.7471 5.30428 18.8869 5.44396Z" fill="white"/>
</svg>
