<svg width="85" height="68" viewBox="0 0 85 68" fill="none" xmlns="http://www.w3.org/2000/svg">
<g filter="url(#filter0_d_80_106)">
<path d="M28.0312 6.29878H6.2583M17.1448 50.0987H6.2583M11.7015 29.1495H6.2583M51.7057 50.7482L64.4537 57.4253C64.9846 57.7194 65.5891 57.8543 66.1947 57.8138C66.8004 57.7732 67.3815 57.559 67.8684 57.1966C68.3662 56.8367 68.7523 56.3436 68.9825 55.7741C69.1977 55.2127 69.264 54.6052 69.1748 54.0105L66.7181 39.8436C66.6028 39.325 66.6028 38.7873 66.7181 38.2687C66.8853 37.7585 67.1757 37.2973 67.5636 36.926L77.8513 26.9032C78.279 26.4739 78.5832 25.9374 78.732 25.3499C78.8808 24.7625 78.8686 24.1458 78.6968 23.5647C78.5112 22.9874 78.1684 22.4731 77.7069 22.0796C77.2455 21.6861 76.6835 21.4288 76.0841 21.3366L61.841 19.3045C61.3174 19.22 60.8214 19.0121 60.3942 18.6978C59.967 18.3836 59.6208 17.972 59.3843 17.4973L53.012 4.52065C52.7555 3.98045 52.3541 3.52207 51.8524 3.19659C51.3507 2.8711 50.7685 2.6913 50.1707 2.67721C49.5576 2.66662 48.9557 2.84114 48.4434 3.17799C47.9148 3.48863 47.4981 3.95864 47.2531 4.52065L40.7249 17.4973C40.4899 17.9654 40.1492 18.3724 39.7297 18.6861C39.3102 18.9997 38.8235 19.2115 38.3081 19.3045L24.2573 21.3366C23.6509 21.4253 23.0801 21.6775 22.6061 22.066C22.1351 22.4581 21.7883 22.9789 21.6082 23.5647C21.4532 24.1527 21.4565 24.7713 21.6177 25.3576C21.779 25.9439 22.0924 26.4772 22.5263 26.9032L32.8213 36.926C33.1963 37.3155 33.4781 37.7631 33.6668 38.2687C33.7821 38.7873 33.7821 39.325 33.6668 39.8436L31.2101 54.0105C31.0405 54.5862 31.0405 55.1985 31.2101 55.7741C31.4393 56.3432 31.8241 56.8362 32.3205 57.1966C32.8078 57.5597 33.3896 57.7744 33.996 57.815C34.6023 57.8555 35.2075 57.7202 35.7388 57.4253L48.4869 50.7482C48.9594 50.4966 49.4866 50.365 50.0219 50.365C50.5572 50.365 51.0844 50.4966 51.5569 50.7482H51.7057Z" stroke="#AA89FF" stroke-width="4.30015" stroke-linecap="round" stroke-linejoin="round" shape-rendering="crispEdges"/>
</g>
<defs>
<filter id="filter0_d_80_106" x="0.108398" y="0.526855" width="84.877" height="67.4453" filterUnits="userSpaceOnUse" color-interpolation-filters="sRGB">
<feFlood flood-opacity="0" result="BackgroundImageFix"/>
<feColorMatrix in="SourceAlpha" type="matrix" values="0 0 0 0 0 0 0 0 0 0 0 0 0 0 0 0 0 0 127 0" result="hardAlpha"/>
<feOffset dy="4"/>
<feGaussianBlur stdDeviation="2"/>
<feComposite in2="hardAlpha" operator="out"/>
<feColorMatrix type="matrix" values="0 0 0 0 0 0 0 0 0 0 0 0 0 0 0 0 0 0 0.25 0"/>
<feBlend mode="normal" in2="BackgroundImageFix" result="effect1_dropShadow_80_106"/>
<feBlend mode="normal" in="SourceGraphic" in2="effect1_dropShadow_80_106" result="shape"/>
</filter>
</defs>
</svg>
