<svg width="89" height="88" viewBox="0 0 89 88" fill="none" xmlns="http://www.w3.org/2000/svg">
<g clip-path="url(#clip0_80_111)">
<path d="M68.0619 37.7338C68.0619 37.8958 68.0583 38.0567 68.051 38.2164C67.0267 37.3077 65.7044 36.8066 64.3351 36.8084C63.7472 36.8084 63.1751 36.8979 62.6187 37.0769V21.3859C62.6187 20.6641 62.3319 19.9718 61.8215 19.4614C61.3111 18.951 60.6189 18.6643 59.8971 18.6643H29.0521C28.3302 18.6643 27.638 18.951 27.1276 19.4614C26.6172 19.9718 26.3304 20.6641 26.3304 21.3859V37.7338C26.3304 39.2361 27.5497 40.4554 29.0521 40.4554H59.0842L59.0479 40.5461L59.037 40.5896L57.4041 45.6119L57.3678 45.7063L57.2988 45.8986H29.0521C26.8866 45.8986 24.8098 45.0384 23.2786 43.5072C21.7474 41.976 20.8872 39.8992 20.8872 37.7338V21.3859C20.8872 19.2205 21.7474 17.1437 23.2786 15.6125C24.8098 14.0813 26.8866 13.2211 29.0521 13.2211H41.7529V10.4994C41.7531 9.84122 41.9918 9.20536 42.4248 8.70962C42.8578 8.21388 43.4558 7.89187 44.108 7.80323L44.4746 7.77783C45.1328 7.77798 45.7687 8.01667 46.2644 8.44969C46.7601 8.8827 47.0821 9.48071 47.1708 10.1329L47.1962 10.4994L47.1925 13.2211H59.8934C62.0589 13.2211 64.1356 14.0813 65.6668 15.6125C67.1981 17.1437 68.0583 19.2205 68.0583 21.3859L68.0619 37.7338ZM48.2594 51.4543L48.6658 51.3237H23.6233C21.4579 51.3237 19.3811 52.1839 17.8499 53.7151C16.3187 55.2463 15.4585 57.3231 15.4585 59.4885V62.7799C15.4581 64.7397 15.8811 66.6764 16.6984 68.4576C17.5157 70.2388 18.7082 71.8225 20.1941 73.1003C25.866 77.9738 33.9909 80.3579 44.4746 80.3579C52.008 80.3579 58.3258 79.1277 63.3916 76.6275C62.4286 76.4431 61.5306 76.0103 60.7865 75.3718C60.0423 74.7334 59.478 73.9115 59.1495 72.9878L59.135 72.9442L59.0261 72.6067C55.0852 74.1381 50.2444 74.9147 44.4746 74.9147C35.1884 74.9147 28.3082 72.897 23.7431 68.9707C22.8517 68.2042 22.1364 67.2542 21.646 66.1857C21.1556 65.1173 20.9017 63.9555 20.9017 62.7799V59.4885C20.9017 58.7667 21.1885 58.0745 21.6989 57.5641C22.2093 57.0537 22.9015 56.7669 23.6233 56.7669H44.4746V56.756C44.4726 55.596 44.8318 54.4641 45.5022 53.5173C46.1726 52.5706 47.121 51.8559 48.2159 51.4725L48.2594 51.4543ZM40.8421 28.6436C40.8593 28.0373 40.7547 27.4338 40.5345 26.8687C40.3144 26.3036 39.9831 25.7884 39.5604 25.3535C39.1377 24.9186 38.632 24.573 38.0733 24.3369C37.5147 24.1009 36.9144 23.9792 36.3079 23.9792C35.7014 23.9792 35.1011 24.1009 34.5424 24.3369C33.9838 24.573 33.4781 24.9186 33.0554 25.3535C32.6327 25.7884 32.3014 26.3036 32.0813 26.8687C31.8611 27.4338 31.7565 28.0373 31.7737 28.6436C31.8071 29.8239 32.2994 30.9447 33.1461 31.7678C33.9928 32.5908 35.1271 33.0513 36.3079 33.0513C37.4887 33.0513 38.623 32.5908 39.4697 31.7678C40.3164 30.9447 40.8087 29.8239 40.8421 28.6436ZM52.6104 24.1075C53.2166 24.0904 53.8201 24.195 54.3852 24.4151C54.9503 24.6353 55.4656 24.9665 55.9004 25.3892C56.3353 25.812 56.681 26.3176 56.917 26.8763C57.1531 27.4349 57.2747 28.0353 57.2747 28.6417C57.2747 29.2482 57.1531 29.8485 56.917 30.4072C56.681 30.9659 56.3353 31.4715 55.9004 31.8942C55.4656 32.317 54.9503 32.6482 54.3852 32.8684C53.8201 33.0885 53.2166 33.1931 52.6104 33.176C51.43 33.1426 50.3092 32.6502 49.4862 31.8035C48.6631 30.9568 48.2026 29.8226 48.2026 28.6417C48.2026 27.4609 48.6631 26.3267 49.4862 25.48C50.3092 24.6333 51.43 24.1409 52.6104 24.1075ZM59.3128 63.7052C58.0632 62.0893 56.3601 60.8827 54.4212 60.2397L49.4243 58.614C49.0404 58.4773 48.7081 58.2252 48.4732 57.8922C48.2383 57.5593 48.1122 57.1617 48.1122 56.7542C48.1122 56.3467 48.2383 55.9492 48.4732 55.6162C48.7081 55.2832 49.0404 55.0311 49.4243 54.8945L54.4212 53.2687C55.9015 52.7582 57.2461 51.9171 58.3528 50.8092C59.4594 49.7012 60.299 48.3557 60.8079 46.8748L60.8442 46.7514L62.4735 41.7545C62.6094 41.3693 62.8615 41.0358 63.1949 40.7999C63.5283 40.564 63.9267 40.4373 64.3351 40.4373C64.7435 40.4373 65.1419 40.564 65.4753 40.7999C65.8088 41.0358 66.0608 41.3693 66.1967 41.7545L67.8224 46.7514C68.3291 48.2698 69.1825 49.6493 70.315 50.7806C71.4476 51.9118 72.828 52.7637 74.347 53.2687L79.3475 54.8945L79.4455 54.9199C79.8294 55.0565 80.1617 55.3086 80.3966 55.6416C80.6315 55.9746 80.7576 56.3721 80.7576 56.7796C80.7576 57.1871 80.6315 57.5847 80.3966 57.9176C80.1617 58.2506 79.8294 58.5027 79.4455 58.6394L74.445 60.2651C72.926 60.7701 71.5455 61.622 70.413 62.7533C69.2805 63.8845 68.4271 65.264 67.9204 66.7825L66.2983 71.7794C66.1599 72.1644 65.9065 72.4975 65.5725 72.7337C65.3234 72.9099 65.0368 73.0259 64.7352 73.0727C64.4337 73.1194 64.1254 73.0956 63.8346 73.0031C63.5438 72.9106 63.2784 72.752 63.0592 72.5397C62.8401 72.3273 62.6731 72.0671 62.5715 71.7794L60.9458 66.7825C60.5827 65.6704 60.0302 64.6293 59.3128 63.7052ZM87.233 77.4984L84.4569 76.5984C83.6132 76.3173 82.8464 75.8437 82.2172 75.2152C81.5881 74.5866 81.1137 73.8203 80.8317 72.9769L79.9282 70.2008C79.853 69.9865 79.7131 69.8008 79.5279 69.6694C79.3426 69.538 79.1211 69.4674 78.8939 69.4674C78.6668 69.4674 78.4453 69.538 78.26 69.6694C78.0747 69.8008 77.9349 69.9865 77.8597 70.2008L76.9562 72.9732C76.6805 73.8112 76.2152 74.5742 75.5965 75.203C74.9778 75.8318 74.2224 76.3093 73.389 76.5984L70.6093 77.4984C70.395 77.5735 70.2093 77.7134 70.0779 77.8987C69.9465 78.0839 69.8759 78.3055 69.8759 78.5326C69.8759 78.7597 69.9465 78.9813 70.0779 79.1665C70.2093 79.3518 70.395 79.4917 70.6093 79.5668L73.389 80.4704C74.2343 80.753 75.0021 81.2288 75.6314 81.8599C76.2607 82.4911 76.7341 83.2603 77.0142 84.1065L77.9142 86.8789C77.9909 87.0916 78.1314 87.2755 78.3165 87.4054C78.5016 87.5354 78.7222 87.6051 78.9484 87.6051C79.1745 87.6051 79.3952 87.5354 79.5802 87.4054C79.7653 87.2755 79.9058 87.0916 79.9826 86.8789L80.8898 84.1065C81.1709 83.2627 81.6445 82.496 82.2731 81.8668C82.9016 81.2376 83.6679 80.7633 84.5114 80.4813L87.291 79.5813C87.5054 79.5062 87.6911 79.3663 87.8225 79.181C87.9539 78.9958 88.0244 78.7743 88.0244 78.5471C88.0244 78.32 87.9539 78.0985 87.8225 77.9132C87.6911 77.7279 87.5054 77.588 87.291 77.5129L87.233 77.4984Z" fill="#AA89FF"/>
</g>
<defs>
<clipPath id="clip0_80_111">
<rect width="87.0917" height="87.0917" fill="white" transform="translate(0.928711 0.520508)"/>
</clipPath>
</defs>
</svg>
