<svg width="88" height="88" viewBox="0 0 88 88" fill="none" xmlns="http://www.w3.org/2000/svg">
<g clip-path="url(#clip0_173_96)">
<path d="M67.1942 37.7338C67.1942 37.8958 67.1906 38.0567 67.1833 38.2164C66.159 37.3077 64.8367 36.8066 63.4674 36.8084C62.8796 36.8084 62.3074 36.8979 61.751 37.0769V21.3859C61.751 20.6641 61.4643 19.9718 60.9539 19.4614C60.4435 18.951 59.7512 18.6643 59.0294 18.6643H28.1844C27.4626 18.6643 26.7703 18.951 26.2599 19.4614C25.7495 19.9718 25.4628 20.6641 25.4628 21.3859V37.7338C25.4628 39.2361 26.6821 40.4554 28.1844 40.4554H58.2165L58.1802 40.5461L58.1693 40.5896L56.5364 45.6119L56.5001 45.7063L56.4311 45.8986H28.1844C26.0189 45.8986 23.9422 45.0384 22.411 43.5072C20.8798 41.976 20.0195 39.8992 20.0195 37.7338V21.3859C20.0195 19.2205 20.8798 17.1437 22.411 15.6125C23.9422 14.0813 26.0189 13.2211 28.1844 13.2211H40.8853V10.4994C40.8854 9.84122 41.1241 9.20536 41.5571 8.70962C41.9901 8.21388 42.5881 7.89187 43.2404 7.80323L43.6069 7.77783C44.2651 7.77798 44.901 8.01667 45.3967 8.44969C45.8925 8.8827 46.2145 9.48071 46.3031 10.1329L46.3285 10.4994L46.3249 13.2211H59.0258C61.1912 13.2211 63.268 14.0813 64.7992 15.6125C66.3304 17.1437 67.1906 19.2205 67.1906 21.3859L67.1942 37.7338ZM47.3917 51.4543L47.7982 51.3237H22.7557C20.5902 51.3237 18.5135 52.1839 16.9822 53.7151C15.451 55.2463 14.5908 57.3231 14.5908 59.4885V62.7799C14.5905 64.7397 15.0134 66.6764 15.8307 68.4576C16.6481 70.2388 17.8405 71.8225 19.3264 73.1003C24.9983 77.9738 33.1232 80.3579 43.6069 80.3579C51.1403 80.3579 57.4581 79.1277 62.5239 76.6275C61.561 76.4431 60.6629 76.0103 59.9188 75.3718C59.1747 74.7334 58.6104 73.9115 58.2818 72.9878L58.2673 72.9442L58.1585 72.6067C54.2176 74.1381 49.3767 74.9147 43.6069 74.9147C34.3207 74.9147 27.4405 72.897 22.8754 68.9707C21.984 68.2042 21.2687 67.2542 20.7783 66.1857C20.2879 65.1173 20.0341 63.9555 20.0341 62.7799V59.4885C20.0341 58.7667 20.3208 58.0745 20.8312 57.5641C21.3416 57.0537 22.0339 56.7669 22.7557 56.7669H43.6069V56.756C43.605 55.596 43.9641 54.4641 44.6345 53.5173C45.3049 52.5706 46.2533 51.8559 47.3482 51.4725L47.3917 51.4543ZM39.9744 28.6436C39.9916 28.0373 39.887 27.4338 39.6668 26.8687C39.4467 26.3036 39.1154 25.7884 38.6927 25.3535C38.27 24.9186 37.7643 24.573 37.2057 24.3369C36.647 24.1009 36.0467 23.9792 35.4402 23.9792C34.8337 23.9792 34.2334 24.1009 33.6748 24.3369C33.1161 24.573 32.6105 24.9186 32.1877 25.3535C31.765 25.7884 31.4337 26.3036 31.2136 26.8687C30.9934 27.4338 30.8889 28.0373 30.906 28.6436C30.9394 29.8239 31.4318 30.9447 32.2784 31.7678C33.1251 32.5908 34.2594 33.0513 35.4402 33.0513C36.621 33.0513 37.7553 32.5908 38.602 31.7678C39.4487 30.9447 39.941 29.8239 39.9744 28.6436ZM51.7427 24.1075C52.3489 24.0904 52.9525 24.195 53.5176 24.4151C54.0827 24.6353 54.5979 24.9665 55.0328 25.3892C55.4676 25.812 55.8133 26.3176 56.0494 26.8763C56.2854 27.4349 56.407 28.0353 56.407 28.6417C56.407 29.2482 56.2854 29.8485 56.0494 30.4072C55.8133 30.9659 55.4676 31.4715 55.0328 31.8942C54.5979 32.317 54.0827 32.6482 53.5176 32.8684C52.9525 33.0885 52.3489 33.1931 51.7427 33.176C50.5624 33.1426 49.4416 32.6502 48.6185 31.8035C47.7954 30.9568 47.335 29.8226 47.335 28.6417C47.335 27.4609 47.7954 26.3267 48.6185 25.48C49.4416 24.6333 50.5624 24.1409 51.7427 24.1075ZM58.4451 63.7052C57.1955 62.0893 55.4924 60.8827 53.5535 60.2397L48.5566 58.614C48.1727 58.4773 47.8405 58.2252 47.6055 57.8922C47.3706 57.5593 47.2445 57.1617 47.2445 56.7542C47.2445 56.3467 47.3706 55.9492 47.6055 55.6162C47.8405 55.2832 48.1727 55.0311 48.5566 54.8945L53.5535 53.2687C55.0339 52.7582 56.3784 51.9171 57.4851 50.8092C58.5917 49.7012 59.4314 48.3557 59.9402 46.8748L59.9765 46.7514L61.6058 41.7545C61.7417 41.3693 61.9938 41.0358 62.3272 40.7999C62.6606 40.564 63.059 40.4373 63.4674 40.4373C63.8759 40.4373 64.2743 40.564 64.6077 40.7999C64.9411 41.0358 65.1931 41.3693 65.329 41.7545L66.9547 46.7514C67.4614 48.2698 68.3148 49.6493 69.4474 50.7806C70.5799 51.9118 71.9604 52.7637 73.4794 53.2687L78.4799 54.8945L78.5778 54.9199C78.9618 55.0565 79.294 55.3086 79.5289 55.6416C79.7638 55.9746 79.8899 56.3721 79.8899 56.7796C79.8899 57.1871 79.7638 57.5847 79.5289 57.9176C79.294 58.2506 78.9618 58.5027 78.5778 58.6394L73.5773 60.2651C72.0583 60.7701 70.6779 61.622 69.5453 62.7533C68.4128 63.8845 67.5594 65.264 67.0527 66.7825L65.4306 71.7794C65.2922 72.1644 65.0389 72.4975 64.7049 72.7337C64.4557 72.9099 64.1691 73.0259 63.8675 73.0727C63.566 73.1194 63.2577 73.0956 62.9669 73.0031C62.6761 72.9106 62.4107 72.752 62.1916 72.5397C61.9724 72.3273 61.8055 72.0671 61.7038 71.7794L60.0781 66.7825C59.715 65.6704 59.1626 64.6293 58.4451 63.7052ZM86.3653 77.4984L83.5892 76.5984C82.7455 76.3173 81.9787 75.8437 81.3496 75.2152C80.7204 74.5866 80.246 73.8203 79.9641 72.9769L79.0605 70.2008C78.9854 69.9865 78.8455 69.8008 78.6602 69.6694C78.4749 69.538 78.2534 69.4674 78.0263 69.4674C77.7991 69.4674 77.5776 69.538 77.3923 69.6694C77.2071 69.8008 77.0672 69.9865 76.9921 70.2008L76.0885 72.9732C75.8128 73.8112 75.3476 74.5742 74.7289 75.203C74.1102 75.8318 73.3547 76.3093 72.5213 76.5984L69.7417 77.4984C69.5273 77.5735 69.3416 77.7134 69.2102 77.8987C69.0788 78.0839 69.0083 78.3055 69.0083 78.5326C69.0083 78.7597 69.0788 78.9813 69.2102 79.1665C69.3416 79.3518 69.5273 79.4917 69.7417 79.5668L72.5213 80.4704C73.3666 80.753 74.1344 81.2288 74.7637 81.8599C75.393 82.4911 75.8665 83.2603 76.1465 84.1065L77.0465 86.8789C77.1233 87.0916 77.2638 87.2755 77.4488 87.4054C77.6339 87.5354 77.8546 87.6051 78.0807 87.6051C78.3068 87.6051 78.5275 87.5354 78.7126 87.4054C78.8976 87.2755 79.0381 87.0916 79.1149 86.8789L80.0221 84.1065C80.3033 83.2627 80.7768 82.496 81.4054 81.8668C82.0339 81.2376 82.8002 80.7633 83.6437 80.4813L86.4234 79.5813C86.6377 79.5062 86.8234 79.3663 86.9548 79.181C87.0862 78.9958 87.1568 78.7743 87.1568 78.5471C87.1568 78.32 87.0862 78.0985 86.9548 77.9132C86.8234 77.7279 86.6377 77.588 86.4234 77.5129L86.3653 77.4984Z" fill="#AA89FF"/>
</g>
<defs>
<clipPath id="clip0_173_96">
<rect width="87.0917" height="87.0917" fill="white" transform="translate(0.0605469 0.520508)"/>
</clipPath>
</defs>
</svg>
