<svg width="68" height="68" viewBox="0 0 68 68" fill="none" xmlns="http://www.w3.org/2000/svg">
<path d="M60.1533 3.03613H8.44256C7.0711 3.03613 5.75582 3.58094 4.78606 4.5507C3.81629 5.52047 3.27148 6.83575 3.27148 8.2072V59.9179C3.27148 61.2894 3.81629 62.6047 4.78606 63.5744C5.75582 64.5442 7.0711 65.089 8.44256 65.089H60.1533C61.5247 65.089 62.84 64.5442 63.8098 63.5744C64.7795 62.6047 65.3243 61.2894 65.3243 59.9179V8.2072C65.3243 6.83575 64.7795 5.52047 63.8098 4.5507C62.84 3.58094 61.5247 3.03613 60.1533 3.03613Z" stroke="#AA89FF" stroke-width="4.82633" stroke-linecap="round" stroke-linejoin="round"/>
<path d="M17.061 40.9576L30.8506 27.168L37.7453 39.2339L51.5348 25.4443" stroke="#AA89FF" stroke-width="4.82633" stroke-linecap="round" stroke-linejoin="round"/>
</svg>
