<svg width="88" height="88" viewBox="0 0 88 88" fill="none" xmlns="http://www.w3.org/2000/svg">
<path d="M25.4025 16.8499C23.4719 16.8493 21.576 17.3622 19.9089 18.3358C18.2419 19.3094 16.8637 20.7089 15.9158 22.3906C14.9678 24.0724 14.4841 25.976 14.5142 27.9063C14.5443 29.8366 15.0873 31.7242 16.0873 33.3755C13.6035 33.8555 11.3643 35.1851 9.75408 37.1362C8.14389 39.0873 7.26318 41.5381 7.26318 44.0679C7.26318 46.5976 8.14389 49.0484 9.75408 50.9995C11.3643 52.9506 13.6035 54.2803 16.0873 54.7602M25.4025 16.8499C25.4025 14.4438 26.3583 12.1363 28.0596 10.435C29.7609 8.73364 32.0685 7.77783 34.4745 7.77783C36.8806 7.77783 39.1881 8.73364 40.8894 10.435C42.5908 12.1363 43.5466 14.4438 43.5466 16.8499V71.2822C43.5466 73.6883 42.5908 75.9958 40.8894 77.6971C39.1881 79.3985 36.8806 80.3543 34.4745 80.3543C32.0685 80.3543 29.7609 79.3985 28.0596 77.6971C26.3583 75.9958 25.4025 73.6883 25.4025 71.2822C23.4725 71.2824 21.5771 70.7695 19.9106 69.796C18.2441 68.8225 16.8663 67.4236 15.9185 65.7424C14.9706 64.0612 14.4867 62.1582 14.5164 60.2284C14.546 58.2987 15.0882 56.4115 16.0873 54.7602M25.4025 16.8499C25.4025 19.8183 26.8286 22.4528 29.0313 24.1075M16.0873 54.7602C17.3896 52.6042 19.3992 50.9665 21.7736 50.1262M69.8555 17.7571L61.6907 25.9219H54.433M69.8555 70.375L61.6907 62.2102H54.433M69.8555 44.0661H54.433M67.1339 17.7571C67.1339 18.4789 67.4207 19.1712 67.9311 19.6816C68.4415 20.192 69.1337 20.4787 69.8555 20.4787C70.5774 20.4787 71.2696 20.192 71.78 19.6816C72.2904 19.1712 72.5772 18.4789 72.5772 17.7571C72.5772 17.0353 72.2904 16.343 71.78 15.8326C71.2696 15.3222 70.5774 15.0355 69.8555 15.0355C69.1337 15.0355 68.4415 15.3222 67.9311 15.8326C67.4207 16.343 67.1339 17.0353 67.1339 17.7571ZM67.1339 70.375C67.1339 69.6532 67.4207 68.9609 67.9311 68.4505C68.4415 67.9401 69.1337 67.6534 69.8555 67.6534C70.5774 67.6534 71.2696 67.9401 71.78 68.4505C72.2904 68.9609 72.5772 69.6532 72.5772 70.375C72.5772 71.0968 72.2904 71.7891 71.78 72.2995C71.2696 72.8099 70.5774 73.0966 69.8555 73.0966C69.1337 73.0966 68.4415 72.8099 67.9311 72.2995C67.4207 71.7891 67.1339 71.0968 67.1339 70.375ZM67.1339 44.0661C67.1339 44.7879 67.4207 45.4801 67.9311 45.9905C68.4415 46.5009 69.1337 46.7877 69.8555 46.7877C70.5774 46.7877 71.2696 46.5009 71.78 45.9905C72.2904 45.4801 72.5772 44.7879 72.5772 44.0661C72.5772 43.3442 72.2904 42.652 71.78 42.1416C71.2696 41.6312 70.5774 41.3444 69.8555 41.3444C69.1337 41.3444 68.4415 41.6312 67.9311 42.1416C67.4207 42.652 67.1339 43.3442 67.1339 44.0661Z" stroke="#AA89FF" stroke-width="5.5521" stroke-linecap="round" stroke-linejoin="round"/>
</svg>
