<svg width="83" height="84" viewBox="0 0 83 84" fill="none" xmlns="http://www.w3.org/2000/svg">
<path d="M67.2851 11.0361H15.5744C14.2029 11.0361 12.8877 11.5809 11.9179 12.5507C10.9481 13.5205 10.4033 14.8358 10.4033 16.2072V67.9179C10.4033 69.2894 10.9481 70.6047 11.9179 71.5744C12.8877 72.5442 14.2029 73.089 15.5744 73.089H67.2851C68.6566 73.089 69.9718 72.5442 70.9416 71.5744C71.9114 70.6047 72.4562 69.2894 72.4562 67.9179V16.2072C72.4562 14.8358 71.9114 13.5205 70.9416 12.5507C69.9718 11.5809 68.6566 11.0361 67.2851 11.0361Z" stroke="#AA89FF" stroke-width="4.82633" stroke-linecap="round" stroke-linejoin="round"/>
<path d="M24.1929 48.9576L37.9824 35.168L44.8772 47.2339L58.6667 33.4443" stroke="#AA89FF" stroke-width="4.82633" stroke-linecap="round" stroke-linejoin="round"/>
</svg>
