<svg width="150" height="150" viewBox="0 0 150 150" fill="none" xmlns="http://www.w3.org/2000/svg">
<g clip-path="url(#clip0_252_106)">
<path d="M126.529 27.1571C116.838 22.7094 106.611 19.535 96.1046 17.713C96.0094 17.697 95.9116 17.7108 95.8246 17.7527C95.7376 17.7945 95.6657 17.8622 95.6188 17.9466C94.3017 20.2819 92.8445 23.3365 91.8263 25.7278C80.501 24.0091 68.9812 24.0091 57.6559 25.7278C56.5201 23.0639 55.2352 20.466 53.8073 17.9466C53.7594 17.8631 53.6873 17.7962 53.6006 17.7545C53.5139 17.7128 53.4166 17.6984 53.3215 17.713C42.8126 19.5252 32.5839 22.7013 22.897 27.1571C22.8141 27.1887 22.7448 27.2481 22.7009 27.3252C3.32707 56.2738 -1.98811 84.5124 0.618101 112.396C0.627443 112.527 0.711514 112.658 0.814268 112.742C12.0959 121.099 24.7148 127.479 38.1326 131.611C38.2274 131.641 38.3292 131.64 38.4232 131.608C38.5173 131.576 38.5988 131.515 38.6558 131.434C41.5329 127.51 44.0924 123.372 46.2969 119.019C46.3429 118.929 46.3586 118.827 46.3418 118.728C46.3249 118.629 46.2764 118.537 46.2035 118.468C46.1552 118.422 46.0979 118.387 46.0354 118.365C42.0108 116.818 38.113 114.96 34.3774 112.807C34.2731 112.748 34.1955 112.651 34.1607 112.536C34.126 112.421 34.1367 112.298 34.1906 112.191C34.2224 112.121 34.2705 112.06 34.3307 112.013C35.1154 111.425 35.9001 110.808 36.6474 110.192C36.7134 110.139 36.7926 110.104 36.8765 110.093C36.9604 110.081 37.0459 110.093 37.1238 110.126C61.5886 121.298 88.0711 121.298 112.237 110.126C112.318 110.091 112.406 110.079 112.494 110.09C112.581 110.102 112.663 110.137 112.732 110.192C113.479 110.808 114.264 111.425 115.049 112.013C115.112 112.06 115.163 112.121 115.197 112.192C115.231 112.263 115.247 112.342 115.243 112.42C115.24 112.499 115.217 112.575 115.176 112.643C115.136 112.71 115.079 112.767 115.011 112.807C111.284 114.98 107.382 116.836 103.344 118.356C103.28 118.379 103.221 118.416 103.173 118.465C103.124 118.513 103.087 118.572 103.064 118.636C103.042 118.698 103.034 118.765 103.038 118.83C103.043 118.896 103.061 118.961 103.092 119.019C105.334 123.363 107.903 127.51 110.724 131.434C110.781 131.515 110.862 131.576 110.956 131.608C111.05 131.64 111.152 131.641 111.247 131.611C124.687 127.492 137.326 121.111 148.621 112.742C148.678 112.703 148.725 112.651 148.759 112.591C148.793 112.532 148.813 112.465 148.817 112.396C151.937 80.1594 143.596 52.1543 126.716 27.3345C126.699 27.2935 126.673 27.2566 126.641 27.226C126.609 27.1954 126.571 27.1719 126.529 27.1571ZM49.9493 95.4137C42.5791 95.4137 36.5166 88.6506 36.5166 80.3556C36.5166 72.0512 42.467 65.2881 49.9493 65.2881C57.4878 65.2881 63.4942 72.1072 63.3821 80.3556C63.3821 88.6506 57.4317 95.4137 49.9493 95.4137ZM99.6075 95.4137C92.2466 95.4137 86.1748 88.6506 86.1748 80.3556C86.1748 72.0512 92.1252 65.2881 99.6075 65.2881C107.146 65.2881 113.162 72.1072 113.04 80.3556C113.04 88.6506 107.146 95.4137 99.6075 95.4137Z" fill="#F2F6FA"/>
</g>
<defs>
<clipPath id="clip0_252_106">
<rect width="149.46" height="149.46" fill="white"/>
</clipPath>
</defs>
</svg>
