<svg width="150" height="150" viewBox="0 0 150 150" fill="none" xmlns="http://www.w3.org/2000/svg">
<g clip-path="url(#clip0_252_103)">
<path d="M74.7302 0.000488281C33.4417 0.000488281 0 33.4422 0 74.7307C0 107.799 21.3915 135.729 51.0967 145.631C54.8332 146.285 56.2344 144.043 56.2344 142.081C56.2344 140.306 56.141 134.421 56.141 128.163C37.3651 131.619 32.5076 123.585 31.013 119.382C30.1723 117.233 26.5292 110.601 23.3532 108.826C20.7376 107.425 17.0011 103.969 23.2598 103.875C29.1448 103.782 33.3483 109.293 34.7495 111.535C41.4752 122.838 52.2177 119.662 56.5147 117.701C57.1686 112.843 59.1302 109.574 61.2787 107.705C44.6513 105.837 27.2765 99.3916 27.2765 70.8073C27.2765 62.6804 30.1723 55.9547 34.9363 50.7236C34.189 48.8553 31.5735 41.1955 35.6836 30.9201C35.6836 30.9201 41.9423 28.9584 56.2344 38.5799C62.2129 36.8985 68.5649 36.0578 74.917 36.0578C81.2691 36.0578 87.6211 36.8985 93.5995 38.5799C107.892 28.865 114.15 30.9201 114.15 30.9201C118.26 41.1955 115.645 48.8553 114.898 50.7236C119.662 55.9547 122.557 62.587 122.557 70.8073C122.557 99.485 105.089 105.837 88.4618 107.705C91.1708 110.041 93.5061 114.524 93.5061 121.53C93.5061 131.526 93.4127 139.559 93.4127 142.081C93.4127 144.043 94.8139 146.378 98.5504 145.631C113.386 140.624 126.278 131.09 135.411 118.371C144.544 105.652 149.458 90.3888 149.46 74.7307C149.46 33.4422 116.019 0.000488281 74.7302 0.000488281Z" fill="#F2F6FA"/>
</g>
<defs>
<clipPath id="clip0_252_103">
<rect width="149.46" height="149.46" fill="white"/>
</clipPath>
</defs>
</svg>
