<svg width="150" height="150" viewBox="0 0 150 150" fill="none" xmlns="http://www.w3.org/2000/svg">
<path d="M48.5742 12.457H100.885C120.813 12.457 137.005 28.6486 137.005 48.5766V100.888C137.005 110.467 133.199 119.654 126.426 126.428C119.652 133.202 110.465 137.007 100.885 137.007H48.5742C28.6461 137.007 12.4546 120.816 12.4546 100.888V48.5766C12.4546 38.9971 16.26 29.8099 23.0338 23.0362C29.8075 16.2625 38.9947 12.457 48.5742 12.457ZM47.3287 24.9121C41.3828 24.9121 35.6804 27.2741 31.476 31.4784C27.2716 35.6828 24.9096 41.3852 24.9096 47.3311V102.133C24.9096 114.526 34.9359 124.552 47.3287 124.552H102.131C108.077 124.552 113.779 122.19 117.983 117.986C122.188 113.782 124.55 108.079 124.55 102.133V47.3311C124.55 34.9384 114.524 24.9121 102.131 24.9121H47.3287ZM107.424 34.2533C109.489 34.2533 111.469 35.0735 112.929 36.5333C114.388 37.9932 115.209 39.9732 115.209 42.0377C115.209 44.1023 114.388 46.0823 112.929 47.5421C111.469 49.002 109.489 49.8221 107.424 49.8221C105.36 49.8221 103.38 49.002 101.92 47.5421C100.46 46.0823 99.6398 44.1023 99.6398 42.0377C99.6398 39.9732 100.46 37.9932 101.92 36.5333C103.38 35.0735 105.36 34.2533 107.424 34.2533ZM74.7297 43.5946C82.9879 43.5946 90.9079 46.8752 96.7473 52.7146C102.587 58.554 105.867 66.474 105.867 74.7322C105.867 82.9904 102.587 90.9103 96.7473 96.7497C90.9079 102.589 82.9879 105.87 74.7297 105.87C66.4715 105.87 58.5516 102.589 52.7121 96.7497C46.8727 90.9103 43.5922 82.9904 43.5922 74.7322C43.5922 66.474 46.8727 58.554 52.7121 52.7146C58.5516 46.8752 66.4715 43.5946 74.7297 43.5946ZM74.7297 56.0496C69.7748 56.0496 65.0228 58.018 61.5192 61.5216C58.0155 65.0253 56.0472 69.7772 56.0472 74.7322C56.0472 79.6871 58.0155 84.4391 61.5192 87.9427C65.0228 91.4464 69.7748 93.4147 74.7297 93.4147C79.6846 93.4147 84.4366 91.4464 87.9403 87.9427C91.4439 84.4391 93.4123 79.6871 93.4123 74.7322C93.4123 69.7772 91.4439 65.0253 87.9403 61.5216C84.4366 58.018 79.6846 56.0496 74.7297 56.0496Z" fill="white"/>
</svg>
