<svg width="150" height="150" viewBox="0 0 150 150" fill="none" xmlns="http://www.w3.org/2000/svg">
<path d="M118.323 18.6826C121.626 18.6826 124.794 19.9948 127.13 22.3306C129.466 24.6664 130.778 27.8344 130.778 31.1376V118.323C130.778 121.626 129.466 124.794 127.13 127.13C124.794 129.466 121.626 130.778 118.323 130.778H31.1376C27.8344 130.778 24.6664 129.466 22.3306 127.13C19.9948 124.794 18.6826 121.626 18.6826 118.323V31.1376C18.6826 27.8344 19.9948 24.6664 22.3306 22.3306C24.6664 19.9948 27.8344 18.6826 31.1376 18.6826H118.323ZM115.209 115.209V82.2033C115.209 76.8189 113.07 71.6551 109.263 67.8478C105.456 64.0405 100.292 61.9016 94.9074 61.9016C89.614 61.9016 83.4488 65.1399 80.4595 69.9973V63.0848H63.0848V115.209H80.4595V84.5074C80.4595 79.7122 84.3206 75.7889 89.1158 75.7889C91.4281 75.7889 93.6457 76.7075 95.2807 78.3425C96.9158 79.9775 97.8343 82.1951 97.8343 84.5074V115.209H115.209ZM42.8454 53.3076C45.6201 53.3076 48.2812 52.2053 50.2433 50.2433C52.2053 48.2812 53.3076 45.6201 53.3076 42.8454C53.3076 37.0538 48.637 32.3209 42.8454 32.3209C40.0541 32.3209 37.3772 33.4297 35.4034 35.4034C33.4297 37.3772 32.3209 40.0541 32.3209 42.8454C32.3209 48.637 37.0538 53.3076 42.8454 53.3076ZM51.5016 115.209V63.0848H34.2514V115.209H51.5016Z" fill="white"/>
</svg>
